<svg width="64" height="60" fill="none" xmlns="http://www.w3.org/2000/svg"><path fill-rule="evenodd" clip-rule="evenodd" d="M52.21 23.573c6.511 0 11.79-5.277 11.79-11.786C64 5.277 58.721 0 52.21 0 45.7 0 40.42 5.277 40.42 11.787c0 6.51 5.279 11.773 11.79 11.786zm0-21.43a9.639 9.639 0 019.646 9.644 9.639 9.639 0 01-9.646 9.643 9.639 9.639 0 01-9.646-9.643c0-5.318 4.314-9.644 9.646-9.644zm-4.287 17.144v-2.143a1.047 1.047 0 01-1.059-1.071V7.5c0-.59.483-1.072 1.072-1.072V4.286h2.144v2.143h1.072V4.286h2.143v2.143h1.072a3.164 3.164 0 012.17.83 3.212 3.212 0 01.201 4.528c.536.589.831 1.366.831 2.17-.013 1.767-1.447 3.2-3.215 3.187h-1.072v2.143h-2.144v-2.143h-1.072v2.143h-2.143zm6.43-10.715h-5.358v2.143h5.359c.59 0 1.072-.482 1.072-1.071 0-.59-.483-1.072-1.072-1.072zm0 4.286h-5.358v2.143h5.359c.59 0 1.072-.482 1.072-1.071 0-.59-.483-1.072-1.072-1.072zm-15.875-1.085l-.201.603-.47 1.42a17.007 17.007 0 00-1.13-.319l-.115-.03a23.431 23.431 0 019.177 17.627h5.346a19.308 19.308 0 00-.992-5.17l2.023-.697a21.425 21.425 0 01-5.399 22.328c-.495.482-1.018.938-1.554 1.366a21.28 21.28 0 01-11.214 4.554c-.683.067-1.38.107-2.076.107h-.081a21.423 21.423 0 01-15.34-6.523c-8.24-8.505-8.011-22.073.496-30.297a21.22 21.22 0 0110.088-5.465 22.81 22.81 0 012.68-.455c.683-.067 1.38-.107 2.076-.107h.094c2.238 0 4.461.362 6.592 1.058zM20.23 16.756c-.214.16-.428.321-.63.495l-.073.063a1.1 1.1 0 01-.14.112 20.424 20.424 0 002.545 1.54 23.815 23.815 0 015.171-5.518c-.097.03-.198.055-.3.081-.083.021-.166.042-.249.066-.257.075-.505.158-.759.243a71.32 71.32 0 01-.192.065c-.242.08-.483.16-.724.254-.294.121-.576.242-.857.362l-.173.077c-.206.091-.405.18-.604.285-.085.044-.168.088-.252.13-.167.087-.333.173-.512.272-.268.147-.536.308-.79.468l-.684.442c-.196.128-.385.27-.573.41l-.204.153zm.576 4.072a24.883 24.883 0 01-2.987-1.889 18.974 18.974 0 00-5.212 12.135h5.332a23.844 23.844 0 012.867-10.246zm-2.853 12.389h-5.346a18.92 18.92 0 005.225 12.135 22.94 22.94 0 012.988-1.889 23.526 23.526 0 01-2.867-10.246zm7.784 17.211c.228.08.469.16.71.228.179.056.367.102.549.147l.107.027a23.817 23.817 0 01-5.171-5.518 21.45 21.45 0 00-2.546 1.54l.114.1c.037.034.074.067.114.1.201.162.402.322.603.47a18.086 18.086 0 001.46 1.004c.282.174.576.348.858.51.214.12.442.24.67.347.294.148.59.282.897.416.228.107.456.2.697.294.245.096.499.184.748.27l.19.065zm-1.836-6.04a21.408 21.408 0 006.873 6.321v-7.822a20.944 20.944 0 00-6.873 1.5zm-1.152-1.849a23.303 23.303 0 018.025-1.795h-.013v-7.527H20.083a21.693 21.693 0 002.666 9.322zm-2.653-11.465h10.692v-7.527a23.335 23.335 0 01-8.026-1.795 21.327 21.327 0 00-2.666 9.322zm3.805-11.17a20.87 20.87 0 006.873 1.5v-7.822a21.548 21.548 0 00-6.873 6.321zm19.695 13.313H32.918l-.014 7.527c2.76.12 5.48.724 8.025 1.795a21.329 21.329 0 002.667-9.322zm-10.678 9.684v7.822A21.844 21.844 0 0039.79 44.4a20.868 20.868 0 00-6.873-1.5zm10.53 4.62c.215-.147.429-.307.63-.482.067-.053.147-.133.214-.2a20.418 20.418 0 00-2.545-1.54 23.814 23.814 0 01-5.172 5.518c.188-.04.362-.08.55-.134.279-.078.539-.166.804-.255l.16-.053c.241-.08.483-.161.724-.255.294-.12.575-.24.856-.361h.001l.764-.362c.254-.12.509-.255.763-.402.268-.147.536-.308.79-.469l.684-.442c.268-.174.523-.361.777-.562zm2.425-2.17a18.975 18.975 0 005.212-12.134h-5.332a23.844 23.844 0 01-2.867 10.246 24.906 24.906 0 012.987 1.889zM32.918 31.075h10.678a21.866 21.866 0 00-2.653-9.322 23.307 23.307 0 01-8.025 1.795v7.527zm0-9.67a21.292 21.292 0 006.873-1.5 21.69 21.69 0 00-6.873-6.322v7.822zM53.59 35.668l4.287-4.286a1.064 1.064 0 011.514.013l4.287 4.286-1.514 1.514-2.572-2.572C58.427 47.67 48.338 58.13 35.342 59.777 20.07 61.706 6.123 50.91 4.195 35.641l2.13-.268a25.693 25.693 0 0022.789 22.355c14.12 1.5 26.795-8.733 28.295-22.85l-2.304 2.303-1.514-1.513zM5.05 33.217c.282 0 .564-.107.765-.308l4.287-4.286-1.528-1.527L6.27 29.4C7.784 15.282 20.485 5.05 34.62 6.576c1.406.148 2.813.416 4.18.804l.575-2.063C24.545 1.165 9.164 9.831 5.011 24.658a29.078 29.078 0 00-.925 5.023l-2.572-2.572L0 28.623l4.287 4.286c.201.2.47.308.764.308zm54.462-4.433l-2.13.254a26.488 26.488 0 00-.845-4.099l2.063-.602c.43 1.446.724 2.947.911 4.447z" fill="#5673CE"/></svg>