<svg width="68" height="60" fill="none" xmlns="http://www.w3.org/2000/svg"><path d="M64.56 23.042h-3.625L55.489 2.557c-.501-1.834-2.378-2.93-4.213-2.44L2.552 13.254a3.502 3.502 0 00-2.436 4.26l7.71 29.017a3.398 3.398 0 002.852 2.497v7.507A3.444 3.444 0 0014.118 60H64.56A3.444 3.444 0 0068 56.535V26.507a3.444 3.444 0 00-3.44-3.465zm-8.612-9.83l2.623 9.83H19.505l36.443-9.83zm-53.61 3.695c-.158-.62.2-1.256.816-1.415L51.878 2.34c.1-.028.2-.043.301-.043.2 0 .387.058.559.144.272.16.459.405.544.708l.889 3.35L3.226 20.255l-.889-3.35zm8.34 9.6v20.168a1.137 1.137 0 01-.63-.75l-5.045-18.97 5.89-1.588c-.144.36-.2.75-.215 1.14zm-6.263-1.776l-.587-2.237L54.773 8.75l.587 2.238L4.416 24.732zm61.292 31.804c0 .635-.516 1.155-1.146 1.155H14.117c-.63 0-1.146-.52-1.146-1.155V26.507c0-.635.516-1.155 1.146-1.155h50.444c.63 0 1.146.52 1.146 1.155v30.028z" fill="#5673CE"/><path d="M44.054 39.774c1.576-1.963 1.29-4.836-.645-6.438a4.752 4.752 0 00-1.763-.895v-1.314c0-.635-.516-1.155-1.146-1.155-.63 0-1.147.52-1.147 1.155v1.155h-1.146v-1.155c0-.635-.516-1.155-1.146-1.155-.631 0-1.147.52-1.147 1.155v1.155h-3.44a1.154 1.154 0 00.001 2.31h1.146V48.45h-1.146a1.155 1.155 0 000 2.31h3.44v1.154c0 .636.515 1.155 1.146 1.155.63 0 1.146-.52 1.146-1.154V50.76h1.146v1.154c0 .636.516 1.155 1.147 1.155.63 0 1.146-.52 1.146-1.154V50.76c3.153 0 5.733-2.57 5.733-5.76-.015-2.238-1.304-4.288-3.325-5.227zM35.9 34.592h4.586c1.26 0 2.293 1.04 2.293 2.31s-1.032 2.31-2.293 2.31H35.9v-4.62zm5.732 13.859H35.9v-6.93h5.732a3.444 3.444 0 013.44 3.465 3.444 3.444 0 01-3.44 3.465z" fill="#5673CE"/><path d="M39.34 26.507c-8.227 0-14.905 6.728-14.905 15.014 0 8.287 6.678 15.014 14.904 15.014 8.226 0 14.904-6.727 14.904-15.014 0-8.286-6.678-15-14.904-15.014zm0 27.718c-6.966 0-12.612-5.688-12.612-12.704 0-7.016 5.646-12.704 12.611-12.704 6.965 0 12.61 5.688 12.61 12.704 0 7.016-5.645 12.69-12.61 12.704z" fill="#5673CE"/></svg>