<svg width="25" height="20" fill="none" xmlns="http://www.w3.org/2000/svg"><path d="M24.614 2.365c-.905.402-1.879.672-2.9.797A5.08 5.08 0 0023.934.37a10.2 10.2 0 01-3.21 1.227 5.052 5.052 0 00-8.604 4.602A14.338 14.338 0 011.71.92a5.03 5.03 0 00-.68 2.538c0 1.754.893 3.299 2.244 4.204a5.022 5.022 0 01-2.288-.636v.065a5.054 5.054 0 004.05 4.951 5.16 5.16 0 01-1.331.177c-.326 0-.64-.032-.95-.092a5.053 5.053 0 004.719 3.508 10.119 10.119 0 01-6.271 2.16c-.407 0-.809-.024-1.203-.069A14.268 14.268 0 007.74 20c9.287 0 14.368-7.695 14.368-14.368l-.016-.656a10.106 10.106 0 002.522-2.61z" fill="#010002"/></svg>