<svg width="8" height="13" viewBox="0 0 8 13" fill="none" xmlns="http://www.w3.org/2000/svg">
<path d="M5.50319 12.7568L7.84337 9.9542C8.08114 9.67016 8.0436 9.24409 7.76203 9.00423C7.48046 8.76437 7.0581 8.80224 6.82032 9.08629L5.65023 10.475L5.65023 3.82199C5.65023 1.71374 3.95454 0.00315601 1.86464 -7.31635e-08L0.666389 -8.74524e-08C0.297216 -9.18548e-08 -3.61302e-09 0.302981 -8.01638e-09 0.67224C-1.24198e-08 1.0415 0.300345 1.34448 0.666389 1.34448L1.87715 1.34448C3.23183 1.34764 4.32997 2.45226 4.32997 3.81883L4.32997 10.4781L3.15987 9.08945C2.9221 8.8054 2.50287 8.76753 2.21817 9.00739C1.9366 9.24725 1.89905 9.67016 2.13683 9.95736L4.47701 12.7599C4.71478 13.044 5.13401 13.0819 5.41559 12.842C5.44374 12.8167 5.4719 12.7883 5.49693 12.7599L5.50319 12.7568Z" fill="#EB5757"/>
</svg>
