<svg width="8" height="13" viewBox="0 0 8 13" fill="none" xmlns="http://www.w3.org/2000/svg">
<path d="M5.50319 0.243217L7.84337 3.0458C8.08114 3.32984 8.0436 3.75591 7.76203 3.99577C7.48046 4.23563 7.0581 4.19776 6.82032 3.91371L5.65023 2.52505L5.65023 9.17801C5.65023 11.2863 3.95454 12.9968 1.86464 13L0.666389 13C0.297216 13 -3.61302e-09 12.697 -8.01638e-09 12.3278C-1.24198e-08 11.9585 0.300345 11.6555 0.666389 11.6555L1.87715 11.6555C3.23183 11.6524 4.32997 10.5477 4.32997 9.18117L4.32997 2.52189L3.15987 3.91055C2.9221 4.1946 2.50287 4.23247 2.21817 3.99261C1.9366 3.75275 1.89905 3.32984 2.13683 3.04264L4.47701 0.240061C4.71478 -0.0439844 5.13401 -0.0818567 5.41559 0.158004C5.44374 0.183251 5.4719 0.211657 5.49693 0.240061L5.50319 0.243217Z" fill="#27AE60"/>
</svg>
