<svg width="64" height="60" viewBox="0 0 64 60" fill="none" xmlns="http://www.w3.org/2000/svg">
<path fill-rule="evenodd" clip-rule="evenodd" d="M52.2102 23.5733C58.7214 23.5733 64 18.2961 64 11.7866C64 5.2772 58.7214 0 52.2102 0C45.699 0 40.4204 5.2772 40.4204 11.7866C40.4204 18.2961 45.699 23.5599 52.2102 23.5733ZM52.2102 2.14303C57.5424 2.14303 61.8564 6.45587 61.8564 11.7866C61.8564 17.1174 57.5424 21.4303 52.2102 21.4303C46.878 21.4303 42.564 17.1174 42.564 11.7866C42.564 6.46926 46.878 2.14303 52.2102 2.14303ZM47.9229 19.2872V17.1442C47.32 17.1442 46.8511 16.662 46.8645 16.0727V7.50055C46.8645 6.91122 47.3468 6.42904 47.9363 6.42904V4.28601H50.0799V6.42904H51.1517V4.28601H53.2953V6.42904H54.3671C55.1709 6.41564 55.948 6.7237 56.5375 7.25946C57.837 8.45152 57.9308 10.474 56.7384 11.7866C57.2743 12.3759 57.5691 13.1528 57.5691 13.9564C57.5557 15.7244 56.1221 17.1576 54.3537 17.1442H53.2819V19.2872H51.1383V17.1442H50.0665V19.2872H47.9229ZM54.3537 8.57206H48.9947V10.7151H54.3537C54.9432 10.7151 55.4255 10.2329 55.4255 9.64358C55.4255 9.05424 54.9432 8.57206 54.3537 8.57206ZM54.3537 12.8581H48.9947V15.0011H54.3537C54.9432 15.0011 55.4255 14.519 55.4255 13.9296C55.4255 13.3403 54.9432 12.8581 54.3537 12.8581ZM38.4777 11.7733L38.2768 12.3761L37.8079 13.7958C37.4433 13.6743 37.0566 13.5748 36.6779 13.4774L36.5619 13.4476C42.0817 17.6667 45.4444 24.1225 45.7392 31.074H51.0848C50.991 29.306 50.6561 27.5648 50.0934 25.9039L52.1164 25.2074C54.7959 33.0697 52.6925 41.7623 46.7172 47.5351C46.2215 48.0173 45.699 48.4727 45.1631 48.9013C41.9477 51.4729 38.049 53.0534 33.9494 53.4552C33.2661 53.5222 32.5694 53.5624 31.8728 53.5624H31.8192H31.7924C26.0047 53.549 20.4715 51.1916 16.4523 47.0395C8.21279 38.5344 8.44055 24.9663 16.948 16.7425C17.4437 16.2603 17.9662 15.8049 18.5021 15.3763C21.0074 13.3806 23.9147 11.9876 27.0363 11.2778C27.9205 11.0768 28.8181 10.9161 29.7158 10.8224C30.3991 10.7554 31.0957 10.7152 31.7924 10.7152H31.8594H31.8862C34.1236 10.7152 36.3475 11.0768 38.4777 11.7733ZM20.2303 16.7559C20.016 16.9166 19.8016 17.0773 19.6007 17.2514C19.5775 17.27 19.5528 17.2917 19.5275 17.3138L19.5274 17.3139C19.4797 17.3558 19.4301 17.3993 19.3863 17.4256C20.1902 18.0015 21.0476 18.5105 21.9318 18.9659C23.352 16.863 25.0936 15.0013 27.1033 13.4476C27.0064 13.4774 26.9053 13.503 26.8024 13.5292L26.8024 13.5292C26.7203 13.55 26.6372 13.5711 26.554 13.5949C26.2971 13.6698 26.0487 13.7533 25.7953 13.8384L25.7945 13.8387L25.7945 13.8387C25.731 13.8601 25.6671 13.8815 25.6027 13.903L25.6027 13.903L25.6027 13.903L25.6026 13.903L25.6026 13.903L25.6026 13.903C25.3615 13.9834 25.1204 14.0637 24.8793 14.1574C24.5846 14.278 24.3033 14.3985 24.022 14.519L24.0218 14.5191C23.9635 14.5453 23.9059 14.5709 23.8487 14.5963C23.6431 14.6875 23.444 14.7759 23.2448 14.8807C23.1599 14.9254 23.0766 14.9685 22.9932 15.0117L22.9931 15.0117C22.8264 15.098 22.6597 15.1843 22.4811 15.2825C22.2132 15.4299 21.9452 15.5906 21.6907 15.7513L21.0074 16.1933C20.8109 16.321 20.6216 16.4631 20.4342 16.6038C20.3661 16.6549 20.2982 16.7059 20.2303 16.7559ZM20.8064 20.8276C19.7748 20.2785 18.77 19.6356 17.8188 18.9391C14.6838 22.234 12.8349 26.5334 12.6072 31.074H17.9394C18.1135 27.4844 19.0916 23.9752 20.8064 20.8276ZM17.9528 33.217H12.6072C12.8349 37.7575 14.6838 42.057 17.8322 45.3519C18.77 44.6554 19.7748 44.0125 20.8198 43.4633C19.0916 40.3024 18.1135 36.8066 17.9528 33.217ZM25.7367 50.4282C25.9645 50.5085 26.2056 50.5889 26.4468 50.6559C26.6256 50.7117 26.8138 50.7583 26.9957 50.8033L26.9958 50.8033L27.1033 50.83C25.0936 49.2763 23.352 47.4145 21.9318 45.3117C21.0476 45.7671 20.2036 46.2761 19.3863 46.852C19.4265 46.8855 19.4633 46.919 19.5002 46.9524L19.5002 46.9525C19.5371 46.986 19.5739 47.0194 19.6141 47.0529C19.815 47.2136 20.016 47.3744 20.2169 47.5217L20.2171 47.5218C20.485 47.7227 20.7529 47.9235 21.0342 48.111C21.2485 48.2583 21.4627 48.3922 21.677 48.5261L21.677 48.5261L21.6771 48.5261L21.6772 48.5262L21.6772 48.5262L21.6773 48.5262C21.9586 48.7004 22.2534 48.8745 22.5347 49.0352C22.7491 49.1558 22.9768 49.2763 23.2046 49.3835C23.4993 49.5308 23.7941 49.6647 24.1022 49.7987C24.33 49.9058 24.5577 49.9996 24.7989 50.0933C25.0441 50.1893 25.2978 50.2767 25.5465 50.3624L25.5467 50.3625C25.6104 50.3845 25.6739 50.4063 25.7367 50.4282ZM23.9013 44.3875C25.6965 46.9725 28.0411 49.129 30.7742 50.7094V42.8874C28.4162 42.9946 26.0985 43.5035 23.9013 44.3875ZM22.7491 42.5392C25.2946 41.4676 28.0143 40.8649 30.7742 40.7444H30.7608V33.217H20.083C20.2571 36.4851 21.1682 39.6729 22.7491 42.5392ZM20.0964 31.074H30.7742H30.7876V23.5466C28.0277 23.426 25.308 22.8233 22.7625 21.7518C21.1682 24.6181 20.2571 27.8058 20.0964 31.074ZM23.9013 19.9034C26.0851 20.7874 28.4162 21.2964 30.7742 21.4036V13.5815C28.0545 15.162 25.6965 17.3184 23.9013 19.9034ZM43.5956 33.217H32.9178L32.9044 40.7444C35.6643 40.8649 38.384 41.4676 40.9295 42.5392C42.5238 39.6729 43.4348 36.4851 43.5956 33.217ZM32.9178 42.9008V50.7228C35.6375 49.1424 37.982 46.9725 39.7907 44.4009C37.6069 43.5169 35.2757 43.0079 32.9178 42.9008ZM43.4482 47.5217C43.6626 47.3744 43.8769 47.2136 44.0779 47.0395C44.1449 46.9859 44.2253 46.9056 44.2923 46.8386C43.4884 46.2627 42.631 45.7537 41.7467 45.2983C40.3266 47.4012 38.5849 49.2629 36.5753 50.8166C36.7629 50.7764 36.937 50.7362 37.1246 50.6827C37.4035 50.6046 37.6638 50.5172 37.9287 50.4283L37.9288 50.4283L38.0892 50.3746C38.3304 50.2942 38.5715 50.2139 38.8127 50.1201C39.107 49.9997 39.388 49.8793 39.669 49.759L39.6691 49.7589L39.6692 49.7589L39.6692 49.7589L39.6693 49.7588L39.6701 49.7585L40.4338 49.3968C40.6883 49.2763 40.9429 49.1424 41.1974 48.995C41.4654 48.8477 41.7333 48.687 41.9879 48.5262L42.6712 48.0842C42.9391 47.9101 43.1937 47.7226 43.4482 47.5217ZM45.8732 45.3519C49.0082 42.057 50.857 37.7575 51.0848 33.217H45.7526C45.5784 36.8066 44.6004 40.3158 42.8855 43.4633C43.9171 44.0125 44.9219 44.6554 45.8732 45.3519ZM32.9178 31.074H43.5956C43.4214 27.8058 42.5104 24.6181 40.9429 21.7518C38.3974 22.8233 35.6777 23.426 32.9178 23.5466V31.074ZM32.9178 21.4036C35.2757 21.283 37.5935 20.7874 39.7907 19.9034C37.982 17.3184 35.6375 15.162 32.9178 13.5815V21.4036ZM53.5901 35.6679L57.8773 31.3819C58.2926 30.9667 58.9759 30.9667 59.3912 31.3953L63.6784 35.6813L62.1645 37.1949L59.5922 34.6232C58.4266 47.6689 48.3383 58.1296 35.3427 59.777C20.0695 61.7057 6.12275 50.9102 4.19351 35.6412L6.32371 35.3733C7.81084 47.2135 17.2427 56.4687 29.1129 57.7277C43.2338 59.2279 55.9079 48.9949 57.4084 34.8777L55.104 37.1815L53.5901 35.6679ZM5.05086 33.2169C5.33221 33.2169 5.61355 33.1097 5.81452 32.9088L10.1017 28.6227L8.5744 27.0958L6.27003 29.3996C7.78395 15.2824 20.4848 5.04945 34.6191 6.57636C36.0259 6.72369 37.4326 6.99157 38.7992 7.37999L39.3753 5.31733C24.5442 1.16521 9.16389 9.83108 5.01067 24.6581C4.55515 26.3056 4.24701 27.9798 4.08624 29.6809L1.51392 27.1092L0 28.6227L4.2872 32.9088C4.48816 33.1097 4.75611 33.2169 5.05086 33.2169ZM59.5115 28.7836L57.3813 29.0381C57.2071 27.6451 56.9258 26.2789 56.5373 24.9395L58.6005 24.3368C59.0292 25.7833 59.3239 27.2835 59.5115 28.7836Z" fill="#5673CE"/>
</svg>
