<svg width="10" height="20" viewBox="0 0 10 20" fill="none" xmlns="http://www.w3.org/2000/svg">
<path d="M2.01767 3.87727C2.01767 4.37936 2.01767 6.62947 2.01767 6.62947H0V9.99535H2.01767V20H6.15993V9.99535H8.94003C8.94003 9.99535 9.20037 8.38215 9.32589 6.61553C8.96327 6.61553 6.17387 6.61553 6.17387 6.61553C6.17387 6.61553 6.17387 4.6583 6.17387 4.31427C6.17387 3.97025 6.62483 3.50535 7.07113 3.50535C7.51743 3.50535 8.45653 3.50535 9.33054 3.50535C9.33054 3.0451 9.33054 1.46444 9.33054 0C8.16829 0 6.84333 0 6.2622 0C1.91539 0.004649 2.01767 3.37517 2.01767 3.87727Z" fill="black"/>
</svg>
