<svg width="20" height="20" viewBox="0 0 20 20" fill="none" xmlns="http://www.w3.org/2000/svg">
<path d="M14.4681 0H5.52009C2.47045 0 0 2.47045 0 5.52009V14.4799C0 17.5177 2.47045 20 5.52009 20H14.4799C17.5177 20 20 17.5296 20 14.4799V5.52009C19.9882 2.47045 17.5059 0 14.4681 0ZM18.2151 14.4681C18.2151 16.5366 16.5366 18.2151 14.4681 18.2151H5.52009C3.45154 18.2151 1.77305 16.5366 1.77305 14.4681V5.52009C1.77305 3.45154 3.45154 1.77305 5.52009 1.77305H14.4799C16.5485 1.77305 18.2269 3.45154 18.2269 5.52009L18.2151 14.4681Z" fill="black"/>
<path d="M9.98816 4.84644C7.15128 4.84644 4.84631 7.1514 4.84631 9.98828C4.84631 12.8252 7.15128 15.1419 9.99998 15.1419C12.8487 15.1419 15.1536 12.837 15.1536 9.98828C15.1418 7.1514 12.8369 4.84644 9.98816 4.84644ZM9.98816 13.3689C8.13237 13.3689 6.60754 11.8559 6.60754 9.98828C6.61936 8.13249 8.13237 6.61949 9.98816 6.61949C11.8439 6.61949 13.3688 8.13249 13.3688 10.0001C13.3688 11.8559 11.8558 13.3689 9.98816 13.3689Z" fill="black"/>
<path d="M15.3546 3.34521C15.0118 3.34521 14.6809 3.48706 14.4326 3.72347C14.1844 3.95987 14.0544 4.30266 14.0544 4.64545C14.0544 4.98824 14.1962 5.31921 14.4326 5.56744C14.669 5.80384 15.0118 5.94569 15.3546 5.94569C15.6974 5.94569 16.0284 5.80384 16.2766 5.56744C16.5248 5.33103 16.6549 4.98824 16.6549 4.64545C16.6549 4.30266 16.513 3.97169 16.2766 3.72347C16.0402 3.47524 15.6974 3.34521 15.3546 3.34521Z" fill="black"/>
</svg>
