<svg width="157" height="20" viewBox="0 0 157 20" fill="none" xmlns="http://www.w3.org/2000/svg">
<path d="M142 0H157L153.95 2.96H151.21V19H147.74V2.96H145.05L142 0Z" fill="#05000A"/>
<path d="M0 0H12.83L9.93 2.93H3.24V7.8H12.6L9.66 10.75H3.26V16.07H10.06L13 19H0V0Z" fill="#05000A"/>
<path d="M22 0H25.97L32.01 15.38L38.03 0H42L34.11 19H29.84L22 0Z" fill="#05000A"/>
<path d="M50.02 0H62.86L59.95 2.93H53.27V7.8H62.62L59.68 10.75H53.3V16.07H60.1L63 19H50L50.02 0Z" fill="#05000A"/>
<path d="M73 2.9L76.08 0H78.6C80.84 0 84.85 1.36 84.82 5.86C84.8803 7.23203 84.4205 8.57626 83.5324 9.62381C82.6443 10.6714 81.3934 11.345 80.03 11.51L85 19H81L76.45 11.9H73.05L76.15 8.96H78.15C78.57 8.96 81.27 8.7 81.27 5.91C81.27 3.12 78.39 2.88 77.79 2.91L73 2.9Z" fill="#05000A"/>
<path d="M96 0H108.86L105.95 2.93H99.27V7.8H108.6L105.66 10.75H99.29V16.07H106.09L109 19H96V0Z" fill="#05000A"/>
<path d="M130.7 5.15L132.55 2.67C132.55 2.67 130.45 0 125.63 0C120.82 0 118.69 2.87 118.69 5.71C118.69 8.55 120.49 10.25 125.04 11.35C129.59 12.45 129.68 13.28 129.71 14.41C129.73 15.69 128.52 16.99 125.51 16.99C122.51 16.99 119.85 14.26 119.85 14.26L118 16.86C118 16.86 120.4 20 125.8 20C131.2 20 133 16.81 133 13.95C133 11.08 131.27 9.29 126.93 8.19C122.6 7.09 122 6.62 122 5.22C122 3.82 123.62 2.97 125.46 2.97C128.5 2.97 130.7 5.15 130.7 5.15Z" fill="#05000A"/>
</svg>
