<svg width="68" height="60" viewBox="0 0 68 60" fill="none" xmlns="http://www.w3.org/2000/svg">
<path d="M64.5607 23.0424H60.935L55.4894 2.55692C54.9879 0.72348 53.1106 -0.373699 51.2763 0.117144L2.55242 13.2544C0.718106 13.7741 -0.371015 15.6653 0.116223 17.5132L7.82605 46.5307C8.18432 47.8733 9.31643 48.855 10.6778 49.0282V56.5352C10.6778 58.4553 12.2112 60 14.1172 60H64.5607C66.4666 60 68 58.4553 68 56.5352V26.5072C68 24.5871 66.4666 23.0424 64.5607 23.0424ZM55.948 13.2111L58.5705 23.0424H19.5054L55.948 13.2111ZM2.33746 16.9069C2.17982 16.2861 2.53808 15.6509 3.1543 15.4921L51.8781 2.34037C51.9785 2.3115 52.0788 2.29706 52.1791 2.29706C52.3797 2.29706 52.566 2.35481 52.738 2.44143C53.0103 2.60023 53.1965 2.84565 53.2825 3.14882L54.171 6.4981L3.22595 20.2561L2.33746 16.9069ZM10.6778 26.5072V46.6751C10.3626 46.5307 10.1333 46.2564 10.0473 45.9244L5.00294 26.9547L10.8928 25.3667C10.7495 25.7276 10.6922 26.1174 10.6778 26.5072ZM4.41539 24.7315L3.82783 22.4938L54.7729 8.75021L55.3605 10.9879L4.41539 24.7315ZM65.7071 56.5352C65.7071 57.1704 65.1912 57.6902 64.5607 57.6902H14.1172C13.4866 57.6902 12.9707 57.1704 12.9707 56.5352V26.5072C12.9707 25.872 13.4866 25.3523 14.1172 25.3523H64.5607C65.1912 25.3523 65.7071 25.872 65.7071 26.5072V56.5352Z" fill="#5673CE"/>
<path d="M44.0539 39.7743C45.6302 37.811 45.3436 34.9381 43.409 33.3356C42.8931 32.917 42.2912 32.6138 41.6464 32.4406V31.1268C41.6464 30.4916 41.1305 29.9719 40.4999 29.9719C39.8694 29.9719 39.3535 30.4916 39.3535 31.1268V32.2818H38.207V31.1268C38.207 30.4916 37.6911 29.9719 37.0606 29.9719C36.43 29.9719 35.9141 30.4916 35.9141 31.1268V32.2818H32.4748C31.8443 32.2818 31.3284 32.8015 31.3284 33.4367C31.3284 34.0719 31.8443 34.5916 32.4748 34.5916H33.6213V48.4507H32.4748C31.8443 48.4507 31.3284 48.9704 31.3284 49.6056C31.3284 50.2409 31.8443 50.7606 32.4748 50.7606H35.9141V51.9155C35.9141 52.5507 36.43 53.0704 37.0606 53.0704C37.6911 53.0704 38.207 52.5507 38.207 51.9155V50.7606H39.3535V51.9155C39.3535 52.5507 39.8694 53.0704 40.4999 53.0704C41.1305 53.0704 41.6464 52.5507 41.6464 51.9155V50.7606C44.7991 50.7606 47.3786 48.1909 47.3786 45.0004C47.3642 42.7627 46.0745 40.7127 44.0539 39.7743ZM35.8998 34.5916H40.4856C41.7467 34.5916 42.7785 35.6311 42.7785 36.9015C42.7785 38.1719 41.7467 39.2113 40.4856 39.2113H35.8998V34.5916ZM41.632 48.4507H35.8998V41.5212H41.632C43.538 41.5212 45.0714 43.0659 45.0714 44.9859C45.0714 46.906 43.538 48.4507 41.632 48.4507Z" fill="#5673CE"/>
<path d="M39.3391 26.5072C31.1133 26.5072 24.4353 33.2346 24.4353 41.5212C24.4353 49.8078 31.1133 56.5352 39.3391 56.5352C47.5648 56.5352 54.2428 49.8078 54.2428 41.5212C54.2428 33.2346 47.5648 26.5216 39.3391 26.5072ZM39.3391 54.2254C32.3744 54.2254 26.7282 48.5374 26.7282 41.5212C26.7282 34.5051 32.3744 28.8171 39.3391 28.8171C46.3037 28.8171 51.9499 34.5051 51.9499 41.5212C51.9499 48.5374 46.3037 54.211 39.3391 54.2254Z" fill="#5673CE"/>
</svg>
