<svg width="60" height="60" viewBox="0 0 60 60" fill="none" xmlns="http://www.w3.org/2000/svg">
<path fill-rule="evenodd" clip-rule="evenodd" d="M57.3635 1.72125H57.4783V1.95076H57.2488H57.1341L56.7898 1.836L56.675 1.49175V0.688502H56.4455V0.459001H56.675V0H56.9045V0.459001H57.4783V0.688502H56.9045V1.377V1.49175L57.0193 1.72125H57.2488H57.3635ZM11.717 1.60656C12.0611 1.83606 12.4051 2.18031 12.5198 2.52456C12.7492 2.98356 12.8639 3.44256 12.8639 4.01631C12.8639 5.27857 12.2904 6.31132 11.2583 7.11457C10.2261 7.91782 8.73515 8.26208 6.78549 8.26208H6.32674C5.98268 8.26208 5.63863 8.60633 5.63863 8.95058L5.06519 11.2456C4.95051 11.5898 4.60645 11.8193 4.26239 11.8193H2.65678C2.31272 11.8193 2.08335 11.5898 2.19804 11.2456L4.37708 1.60656C4.49176 1.26231 4.83582 1.03281 5.17988 1.03281H8.50578C9.1939 1.03281 9.76733 1.03281 10.3408 1.14756C10.7995 1.26231 11.2583 1.37706 11.717 1.60656ZM7.24423 6.31132C8.04704 6.31132 8.73515 6.08182 9.1939 5.73757C9.65264 5.39332 9.88202 4.81957 9.88202 4.24582C9.88202 3.78681 9.76733 3.44256 9.42327 3.32781C9.07921 3.09831 8.62047 2.98356 8.04704 2.98356H7.58829C7.24423 2.98356 6.90017 3.21306 6.78549 3.55731L6.32674 5.73757C6.21206 6.08182 6.44143 6.31132 6.78549 6.31132H7.24423ZM59.8853 0.57383L59.5413 0.34433L59.1972 0.45908L58.9679 0.688581L58.7385 0.45908L58.5091 0.34433L58.2797 0.45908L58.0504 0.57383V0.45908H57.821V1.95083H58.0504V0.803331L58.2797 0.688581H58.5091H58.6238L58.7385 0.803331V0.918081V1.14758V1.95083H58.9679V1.03283V0.918081V0.803331L59.1972 0.688581H59.4266H59.656V0.803331L59.7707 0.918081V1.14758V1.95083H60V1.03283L59.8853 0.57383ZM17.3367 3.44247C18.5982 3.44247 19.5157 3.55722 20.2038 3.90148C20.7773 4.24573 21.0066 4.81948 21.1213 5.50798V5.85223L21.0066 6.31123L19.8598 11.2455C19.7451 11.475 19.5157 11.8192 19.1717 11.8192H18.9423H17.6807C17.3367 11.8192 17.1073 11.5897 17.222 11.2455L17.3367 11.016L16.7633 11.3602L16.0751 11.7045L15.2723 11.934C15.043 12.0487 14.6989 12.0487 14.2402 12.0487C13.6667 12.0487 13.0933 11.8192 12.6346 11.475C12.1758 11.1307 11.9464 10.557 11.9464 9.98324C11.9464 9.40949 12.1758 8.83574 12.4052 8.37674C12.7492 7.91774 13.208 7.57349 13.8961 7.22924C14.3548 6.99973 15.043 6.77023 15.8458 6.65548C15.9835 6.6358 16.1145 6.61611 16.2416 6.597C16.8555 6.50473 17.3794 6.42598 18.1395 6.42598L18.3689 6.31123V6.08173C18.3689 5.73748 18.2542 5.50798 17.7954 5.50798C17.5661 5.39323 16.9926 5.27848 16.4192 5.27848C15.9605 5.27848 15.387 5.39323 14.9283 5.50798C14.753 5.55181 14.6113 5.5789 14.4902 5.60204C14.2943 5.63947 14.1525 5.66656 14.0108 5.73748C13.8961 5.73748 13.6667 5.73748 13.6667 5.16373L13.8961 4.36048C13.8961 4.36048 14.0108 3.78673 14.5842 3.67198C14.8136 3.67198 14.9283 3.67197 15.387 3.55722C16.0751 3.44247 16.6486 3.44247 17.3367 3.44247ZM17.3367 9.86849L17.5661 9.52424C17.6807 9.17999 17.9101 8.26199 17.9101 8.26199L17.7954 8.03249C17.7535 8.03249 17.6347 8.04786 17.484 8.06735L17.484 8.06736C17.2231 8.10112 16.8667 8.14724 16.6486 8.14724C16.3045 8.14724 15.8458 8.26199 15.6164 8.37674L14.9283 8.83574C14.8136 9.06524 14.6989 9.29474 14.6989 9.63899L15.043 10.2127C15.2723 10.3275 15.6164 10.3275 15.9605 10.3275C16.1898 10.3275 16.4192 10.3275 16.7633 10.2127L17.3367 9.86849ZM48.7614 3.90148C48.188 3.55722 47.2705 3.44247 45.8942 3.44247C45.2061 3.44247 44.6327 3.44247 43.9446 3.55722C43.4858 3.67197 43.3712 3.67198 43.1418 3.67198C42.5684 3.78673 42.4537 4.36048 42.4537 4.36048L42.339 5.27848C42.2243 5.73748 42.5683 5.73748 42.683 5.73748C42.8248 5.66656 42.9666 5.63947 43.1625 5.60204C43.2835 5.5789 43.4253 5.55181 43.6005 5.50798C44.0593 5.39323 44.6327 5.27848 45.0914 5.27848C45.6649 5.27848 46.2383 5.39323 46.4677 5.50798C46.8117 5.50798 46.9264 5.85223 46.9264 6.08173V6.31123L46.6971 6.42598C45.7796 6.42598 45.0914 6.54073 44.4033 6.65548C43.6005 6.77023 42.9124 6.99973 42.4537 7.22923C41.8802 7.45873 41.4215 7.80299 41.0774 8.26199C40.7334 8.72099 40.6187 9.29474 40.6187 9.86849C40.6187 10.4422 40.8481 11.016 41.3068 11.3602C41.7655 11.7045 42.339 11.934 42.9124 11.934C43.3712 11.934 43.7152 11.934 43.9446 11.8192L44.7474 11.5897L45.4355 11.2455L46.0089 10.9012V11.1307C45.8943 11.475 46.1236 11.7045 46.4677 11.7045H47.7292H47.9586C48.3027 11.7045 48.532 11.3602 48.6467 11.1307L49.7936 6.19648L49.9083 5.73748V5.39323C49.6789 4.81948 49.3348 4.24573 48.7614 3.90148ZM46.2383 9.52424L46.0089 9.86849L45.4355 10.2127C45.0914 10.3275 44.7474 10.3275 44.518 10.3275C44.174 10.3275 43.8299 10.3275 43.6005 10.2127L43.2565 9.63899C43.2565 9.29474 43.3712 9.06524 43.4858 8.83574C43.6005 8.60624 43.8299 8.49149 44.174 8.37674C44.4033 8.26199 44.7474 8.14724 45.2061 8.14724C45.4243 8.14724 45.7807 8.10112 46.0416 8.06735L46.0416 8.06735L46.0418 8.06732L46.0419 8.0673L46.0421 8.06728C46.1925 8.04783 46.3111 8.03249 46.353 8.03249L46.4677 8.26199C46.4677 8.26199 46.353 9.17999 46.2383 9.52424ZM40.2743 1.72131C40.7331 1.95081 40.9624 2.29506 41.1918 2.63931C41.3065 2.98356 41.4212 3.44256 41.5359 4.13106C41.5359 5.39332 40.9624 6.42607 39.9302 7.22932C38.8981 8.03257 37.4071 8.37683 35.4575 8.37683H34.9987C34.6547 8.37683 34.3106 8.60633 34.1959 8.95058L33.6225 11.2456C33.5078 11.5898 33.1638 11.8193 32.8197 11.8193H31.2141C30.87 11.8193 30.6407 11.5898 30.7553 11.2456L32.9344 1.60656C33.0491 1.26231 33.3931 1.03281 33.7372 1.03281H37.0631C37.7512 1.03281 38.3246 1.03281 38.8981 1.14756C39.4715 1.26231 39.9302 1.37706 40.2743 1.72131ZM35.8015 6.31132C36.6043 6.31132 37.2925 6.08182 37.7512 5.73757C38.21 5.39332 38.4393 4.93432 38.554 4.36057C38.554 4.01631 38.4393 3.67206 38.0953 3.44256C37.7512 3.21306 37.2925 3.09831 36.719 3.09831H36.2603C35.9162 3.09831 35.5722 3.32781 35.4575 3.67206L34.9987 5.73757C34.8841 6.08182 35.1134 6.31132 35.4575 6.31132H35.8015ZM54.6103 1.72118C54.725 1.37693 54.4956 1.14743 54.1516 1.14743H52.7753C52.4313 1.14743 52.2019 1.37693 52.0872 1.60643L51.9725 1.72118L51.8579 2.06543L49.9082 11.016L49.7935 11.2455C49.6788 11.5897 49.9082 11.8192 50.1376 11.8192H51.6285C51.9725 11.8192 52.2019 11.5897 52.3166 11.3602L52.4313 11.2455L54.6103 1.72118ZM29.0346 3.55728H30.8696C31.3125 3.55728 31.0028 4.10495 30.8917 4.30138C30.859 4.35927 30.8435 4.38665 30.8696 4.36053L24.5618 15.0323C24.3325 15.3766 23.8737 15.6061 23.5297 15.6061H21.924C21.58 15.6061 21.4653 15.3766 21.6947 15.0323L23.1856 12.6226C23.1856 12.6226 23.3003 12.5078 23.1856 11.7046C22.9562 10.2128 21.924 4.13103 21.924 4.13103C21.8094 3.78678 22.0387 3.55728 22.3828 3.55728H23.759C24.1031 3.55728 24.4471 3.78678 24.5618 4.13103L25.2499 8.37679H25.4793C25.7087 8.03254 28.0024 4.13103 28.0024 4.13103C28.2318 3.78678 28.6905 3.55728 29.0346 3.55728ZM56.9168 28.22C57.4251 28.22 57.8317 27.8132 57.8317 27.3046V23.7559C57.8317 21.4278 55.9341 19.5291 53.6073 19.5291H4.22443C1.8976 19.5291 0 21.4278 0 23.7559V55.7732C0 58.1013 1.8976 60 4.22443 60H53.6073C55.9341 60 57.8317 58.1013 57.8317 55.7732V30.2769C57.8317 29.7683 57.4251 29.3615 56.9168 29.3615C56.4085 29.3615 56.0019 29.7683 56.0019 30.2769V55.7732C56.0019 57.0955 54.9288 58.1692 53.6073 58.1692H4.22443C2.90288 58.1692 1.82983 57.0955 1.82983 55.7732V23.7559C1.82983 22.4336 2.90288 21.36 4.22443 21.36H53.6073C54.9288 21.36 56.0019 22.4336 56.0019 23.7559V27.3159C56.0019 27.8132 56.4085 28.22 56.9168 28.22ZM19.2249 36.3798H21.0773C21.7776 36.3798 22.3198 36.6398 22.3198 37.4309C22.3198 38.1655 21.8115 38.4254 21.0773 38.4254H19.2249V36.3798ZM21.0091 33.1814H19.2131V34.888H21.0091C21.4044 34.888 21.9579 34.6732 21.9579 34.0403C21.9579 33.3849 21.4948 33.1814 21.0091 33.1814ZM29.4696 33.8482H29.4922L30.4862 36.9674H28.4643L29.4696 33.8482ZM14.639 43.4207H13.3739V44.7995H14.7067C15.1924 44.7995 15.4409 44.5395 15.4409 44.0762C15.4522 43.6241 15.0908 43.4207 14.639 43.4207ZM20.4329 43.8388H20.4555L21.1332 45.9861H19.7439L20.4329 43.8388ZM50.072 43.4207H48.807V44.7995H50.1511C50.6368 44.7995 50.8853 44.5395 50.8853 44.0762C50.8853 43.6241 50.5238 43.4207 50.072 43.4207ZM54.2772 47.3385C54.28 47.3648 54.2826 47.3887 54.2847 47.4101C54.5332 47.8961 54.5671 48.4725 54.3186 48.9697C54.0249 49.6365 53.3698 50.0773 52.6356 50.0773H51.0543C50.6364 50.0773 50.2297 49.9417 49.9135 49.6817C49.5972 49.9304 49.2019 50.0773 48.7726 50.0773H47.18C47.0219 50.0773 46.875 50.0547 46.7282 50.0208C46.5814 50.0547 46.4345 50.0773 46.2764 50.0773H41.3065C40.3238 50.0773 39.5218 49.2975 39.4879 48.3142C39.4654 49.2862 38.6521 50.0773 37.6694 50.0773H36.0768C35.6814 50.0773 35.32 49.9417 35.015 49.7269C34.3486 50.0321 33.5466 50.2016 32.6656 50.2016C31.7846 50.2016 31.0052 50.0321 30.3501 49.7156C30.0451 49.9417 29.6724 50.0773 29.2657 50.0773H27.6279C27.2326 50.0773 26.8599 49.953 26.5549 49.7269C26.2499 49.953 25.8772 50.0773 25.4818 50.0773H23.9796H23.9795C23.9117 50.0773 23.8327 50.0773 23.765 50.066C23.6859 50.0773 23.6182 50.0773 23.5391 50.0773H23.539H21.8786C21.3026 50.0773 20.7717 49.806 20.4329 49.3653C20.094 49.806 19.5631 50.0773 18.9871 50.0773H17.3492H17.3041H17.2363H15.655C15.237 50.0773 14.8304 49.9417 14.5141 49.6817C14.1979 49.9304 13.8025 50.0773 13.3733 50.0773H11.7807C11.2837 50.0773 10.8432 49.8852 10.5156 49.5687C10.1881 49.8852 9.74754 50.0773 9.25055 50.0773H7.65792C6.64135 50.0773 5.82809 49.2523 5.82809 48.2464V45.3193C4.81152 45.3193 3.99826 44.4943 3.99826 43.4885V42.1097C3.99826 41.7706 4.09991 41.4542 4.25805 41.1829C4.08862 40.9117 3.99826 40.5953 3.99826 40.2562V38.3237C3.99826 38.0524 4.05473 37.7925 4.16769 37.5551C4.06603 37.3291 3.99826 37.0692 3.99826 36.7866V34.8541C3.99826 34.5828 4.05473 34.3229 4.16769 34.0856C4.06603 33.8595 3.99826 33.5996 3.99826 33.3171V31.3732C3.99826 30.3561 4.82281 29.5423 5.82809 29.5423H15.4855C15.734 29.5423 15.9825 29.5988 16.1971 29.6893C16.423 29.5875 16.6602 29.5423 16.9087 29.5423H21.0541H21.2009C22.3982 29.5423 23.4148 29.7684 24.2055 30.2204C25.0978 30.729 25.6964 31.4975 25.9562 32.4581L26.6001 30.729C26.8599 30.017 27.5489 29.5423 28.3056 29.5423H30.6551C31.4118 29.5423 32.0896 30.017 32.3606 30.729L32.8012 31.8931V31.3619C32.8012 30.3447 33.6257 29.531 34.631 29.531H37.0143C37.6581 29.531 38.2455 29.8588 38.573 30.4013C38.9006 29.8814 39.4767 29.531 40.1318 29.531H42.3118C42.5941 29.531 42.8652 29.5988 43.1024 29.7119C43.3396 29.5988 43.6107 29.531 43.8931 29.531H46.2086C46.8073 29.531 47.3382 29.8249 47.6657 30.2656L47.7448 30.1752C48.0949 29.7797 48.6032 29.5423 49.1341 29.5423H52.0144C53.031 29.5423 53.8442 30.3674 53.8442 31.3732C53.8442 31.8592 53.6522 32.3112 53.3359 32.639L51.0656 35.0575L53.9346 39.2391C54.3186 39.8042 54.3638 40.5275 54.0475 41.1264C53.9233 41.3525 53.7652 41.5446 53.5731 41.7028C54.0475 42.2905 54.3073 43.0251 54.3073 43.8614C54.3073 44.4378 54.1718 44.9803 53.9459 45.4549C54.0814 45.8053 54.1831 46.2234 54.2283 46.7207V46.7546C54.2396 46.7885 54.2396 46.8337 54.2396 46.8789C54.2487 47.0712 54.2653 47.2264 54.2772 47.3385ZM5.82809 31.3732V33.0345V33.3171H15.4855V31.3732H15.0789H5.82809ZM5.82809 35.1366V36.5154V36.7866H15.4855V34.8541H5.82809V35.1366ZM5.82809 38.3463V38.6288V40.2788H15.0789H15.4855V38.3463H5.82809ZM9.95086 43.5111H11.0691V42.1323H9.95086H5.82809V43.5111H7.64662V48.269H9.25055V43.5111H9.95086ZM15.5533 47.9526C15.5759 48.0769 15.6098 48.2012 15.655 48.269L17.2363 48.2351C17.0534 48.0522 17.01 47.3688 16.9872 47.0097C16.9832 46.9474 16.9798 46.8948 16.9765 46.8563C16.9426 46.3817 16.8071 45.8166 16.4117 45.534L16.4004 45.5228C16.3892 45.5171 16.3779 45.5086 16.3666 45.5001C16.3553 45.4917 16.344 45.4832 16.3327 45.4775C16.327 45.4775 16.3214 45.4747 16.3157 45.4719C16.3101 45.4691 16.3044 45.4662 16.2988 45.4662L16.231 45.4323C16.2254 45.4323 16.2197 45.4295 16.2141 45.4267C16.2084 45.4239 16.2028 45.421 16.1971 45.421L16.0955 45.3871V45.3758C16.1407 45.3645 16.1858 45.3419 16.231 45.3193C16.2367 45.3137 16.2423 45.3108 16.248 45.308C16.2536 45.3052 16.2593 45.3024 16.2649 45.2967C16.2702 45.294 16.2762 45.2914 16.2825 45.2886C16.3029 45.2794 16.3267 45.2688 16.344 45.2515C16.3666 45.2515 16.3779 45.2402 16.3892 45.2289C16.3982 45.2228 16.4065 45.2176 16.4142 45.2127C16.4352 45.1994 16.4517 45.1889 16.4682 45.1724C16.4795 45.1724 16.4908 45.1611 16.5021 45.1498C16.519 45.1328 16.536 45.1187 16.5529 45.1046C16.5699 45.0905 16.5868 45.0763 16.6038 45.0594C16.9087 44.7429 17.0556 44.3022 17.0556 43.8501C17.0556 42.8443 16.3553 42.3357 15.5081 42.1775H15.4742C15.4505 42.1716 15.4237 42.1687 15.3954 42.1658C15.3698 42.1631 15.3429 42.1603 15.3161 42.1549H15.2483C15.2257 42.1549 15.2031 42.1521 15.1806 42.1492C15.158 42.1464 15.1354 42.1436 15.1128 42.1436C15.045 42.1323 14.9772 42.1323 14.9095 42.1323H12.9102H11.792V45.195V48.269H13.3846V46.0426H14.5932C15.3387 46.0426 15.4404 46.6755 15.4855 47.2971V47.3423C15.4876 47.3676 15.4897 47.3968 15.4921 47.4291C15.5022 47.5699 15.5166 47.7687 15.5533 47.9526ZM21.8899 48.269H22.1723H23.5729L21.28 42.1436H19.6535L17.3605 48.269H18.9984L19.0661 48.0882L19.3824 47.1728H21.5172L21.8899 48.269ZM22.7484 40.0867C22.9065 40.0415 23.0534 39.9963 23.2002 39.9285C24.0699 39.5329 24.6347 38.7983 24.6573 37.4647C24.6573 37.1144 24.5895 36.7866 24.454 36.4928C24.3636 36.2894 24.2394 36.1085 24.0925 35.9503C24.0925 35.9447 24.0897 35.9418 24.0869 35.939C24.084 35.9362 24.0812 35.9334 24.0812 35.9277C24.0586 35.8976 24.026 35.8674 23.9934 35.8373C23.977 35.8222 23.9607 35.8072 23.9457 35.7921L23.9344 35.7808L23.765 35.6452H23.7537L23.5842 35.5435C23.5677 35.5435 23.5572 35.5374 23.5439 35.5297C23.5391 35.5269 23.5338 35.5239 23.5278 35.5209C23.4713 35.4983 23.4261 35.4757 23.3809 35.4531C23.3696 35.4474 23.3611 35.4446 23.3527 35.4418C23.3442 35.4389 23.3357 35.4361 23.3244 35.4305L23.1211 35.3626C23.8214 35.0123 24.2958 34.3681 24.2958 33.5657V33.3962V33.3397C24.2958 33.3227 24.293 33.3058 24.2902 33.2888C24.2874 33.2719 24.2845 33.2549 24.2845 33.2379C24.2845 33.2333 24.2826 33.2266 24.2803 33.2189C24.2771 33.2079 24.2732 33.1947 24.2732 33.1814C24.2732 33.1645 24.2704 33.1504 24.2676 33.1362C24.2648 33.1221 24.2619 33.108 24.2619 33.091C24.2619 33.0863 24.26 33.0797 24.2577 33.072C24.2545 33.061 24.2506 33.0478 24.2506 33.0345C24.245 33.0232 24.2422 33.0091 24.2394 32.995C24.2365 32.9808 24.2337 32.9667 24.2281 32.9554C24.2217 32.9491 24.2189 32.9392 24.2157 32.9277C24.2132 32.9187 24.2104 32.9088 24.2055 32.8989C24.2005 32.884 24.1977 32.8713 24.1952 32.8599C24.192 32.8452 24.1892 32.8325 24.1829 32.8198C24.1772 32.8085 24.1744 32.8 24.1716 32.7915C24.1688 32.7831 24.1659 32.7746 24.1603 32.7633C24.1603 32.7407 24.149 32.7181 24.1377 32.6955C24.132 32.6842 24.1292 32.6757 24.1264 32.6672C24.1236 32.6587 24.1208 32.6503 24.1151 32.639L24.0812 32.5712C24.0756 32.5599 24.0699 32.5514 24.0643 32.5429C24.0586 32.5344 24.053 32.526 24.0473 32.5146C24.036 32.5034 24.0248 32.4808 24.0135 32.4582L24.0135 32.4581C24.0078 32.4525 24.0022 32.444 23.9965 32.4355C23.9909 32.4271 23.9852 32.4186 23.9796 32.4129C23.9739 32.4016 23.9683 32.3932 23.9626 32.3847C23.957 32.3762 23.9513 32.3677 23.9457 32.3564C23.94 32.3508 23.9344 32.3423 23.9287 32.3338C23.9231 32.3253 23.9174 32.3169 23.9118 32.3112C23.8892 32.2886 23.8779 32.2773 23.8666 32.2547C23.861 32.2491 23.8553 32.2406 23.8497 32.2321C23.844 32.2236 23.8384 32.2152 23.8327 32.2095L23.7875 32.1643L23.7424 32.1191L23.6972 32.0739C23.6915 32.0682 23.6831 32.0626 23.6746 32.0569C23.6661 32.0513 23.6577 32.0456 23.652 32.04C23.6407 32.0343 23.6322 32.0259 23.6238 32.0174C23.6153 32.0089 23.6068 32.0004 23.5955 31.9948C23.5899 31.9891 23.5814 31.9835 23.5729 31.9778C23.5645 31.9722 23.556 31.9665 23.5503 31.9609C23.5278 31.9383 23.5165 31.927 23.4939 31.9157C23.4882 31.91 23.4797 31.9044 23.4713 31.8987C23.4628 31.8931 23.4543 31.8874 23.4487 31.8818C23.4374 31.8761 23.4289 31.8705 23.4205 31.8648C23.412 31.8592 23.4035 31.8535 23.3922 31.8479C23.3866 31.8422 23.3781 31.8366 23.3696 31.8309C23.3611 31.8253 23.3527 31.8196 23.347 31.814C23.3357 31.8027 23.3131 31.7913 23.2906 31.78C23.274 31.78 23.2635 31.774 23.2502 31.7663C23.2454 31.7635 23.2401 31.7605 23.2341 31.7574L23.1663 31.7235C23.155 31.7179 23.1465 31.7151 23.1381 31.7122C23.1296 31.7094 23.1211 31.7066 23.1098 31.7009L23.0421 31.667C23.0308 31.6614 23.0223 31.6586 23.0138 31.6557C23.0053 31.6529 22.9969 31.6501 22.9856 31.6444C22.9743 31.6388 22.963 31.636 22.9517 31.6331C22.9404 31.6303 22.9291 31.6275 22.9178 31.6218C22.9065 31.6162 22.898 31.6133 22.8896 31.6105C22.8811 31.6077 22.8726 31.6049 22.8613 31.5992C22.85 31.5936 22.8387 31.5907 22.8274 31.5879C22.8162 31.5851 22.8049 31.5823 22.7936 31.5766C22.7823 31.571 22.7738 31.5681 22.7653 31.5653C22.7568 31.5625 22.7484 31.5597 22.7371 31.554C22.7258 31.5484 22.7145 31.5455 22.7032 31.5427C22.6919 31.5399 22.6806 31.5371 22.6693 31.5314C22.6646 31.5314 22.658 31.5295 22.6503 31.5272C22.6393 31.524 22.6261 31.5201 22.6128 31.5201C22.6015 31.5145 22.5902 31.5116 22.579 31.5088C22.5677 31.506 22.5564 31.5032 22.5451 31.4975C22.5404 31.4975 22.5338 31.4956 22.526 31.4933C22.5151 31.4901 22.5018 31.4862 22.4886 31.4862C22.4699 31.4862 22.4547 31.4828 22.441 31.4797C22.4298 31.4772 22.4197 31.4749 22.4095 31.4749C22.3982 31.4749 22.3869 31.4721 22.3756 31.4693C22.3643 31.4664 22.353 31.4636 22.3418 31.4636C22.3231 31.4636 22.3079 31.4602 22.2942 31.4571C22.283 31.4546 22.2728 31.4523 22.2627 31.4523C22.2514 31.4523 22.2401 31.4495 22.2288 31.4467C22.2175 31.4438 22.2062 31.441 22.1949 31.441C22.1763 31.441 22.161 31.4376 22.1473 31.4345C22.1362 31.432 22.126 31.4297 22.1158 31.4297C22.1046 31.4297 22.0933 31.4269 22.082 31.424C22.0707 31.4212 22.0594 31.4184 22.0481 31.4184C22.0368 31.4184 22.0227 31.4156 22.0085 31.4127C21.9944 31.4099 21.9803 31.4071 21.969 31.4071C21.9464 31.3958 21.9238 31.3958 21.9012 31.3958C21.8786 31.3845 21.8448 31.3845 21.8222 31.3845C21.7996 31.3732 21.777 31.3732 21.7544 31.3732C21.7318 31.3619 21.6979 31.3619 21.6753 31.3619H21.6076H21.5285H21.4607H21.3817H21.3252H21.2461H21.1896H21.1783H21.0428H17.2928H16.8861V40.2675H17.2928H21.1558H21.4042H21.4607C21.5511 40.2675 21.6301 40.2675 21.7092 40.2562H21.7318C21.7713 40.2506 21.8109 40.2477 21.8504 40.2449C21.8899 40.2421 21.9295 40.2393 21.969 40.2336H21.9916C22.082 40.2223 22.161 40.211 22.2401 40.1997H22.2627C22.4208 40.1658 22.579 40.1319 22.7371 40.0867H22.7484ZM28.7349 48.269H29.277V42.1323H28.8252H27.7748V45.907H27.7522L25.6287 42.1323H23.9909V44.2457V48.269H25.3689H25.4931V44.4491H25.5157L27.6392 48.269H28.7349ZM27.3568 40.2788L27.9216 38.6853V38.674H31.0165L31.57 40.2675H31.6265H33.9759L32.8012 37.1144L30.6551 31.3732H28.3056L24.9735 40.2788H25.6061H27.3568ZM33.6144 48.3029C33.6483 48.2945 33.6822 48.286 33.7161 48.2803C34.631 48.0543 35.3426 47.4892 35.3878 46.3365C35.3878 45.2967 34.6084 44.8786 33.7951 44.6186H33.7838C33.7663 44.6128 33.7496 44.607 33.7334 44.6013C33.6869 44.5851 33.645 44.5705 33.6031 44.5621C33.4104 44.5084 33.2181 44.4626 33.0352 44.419C32.3713 44.2608 31.8298 44.1318 31.8298 43.7597C31.8298 43.3642 32.259 43.2398 32.5978 43.2398C33.0835 43.2398 33.6031 43.4207 33.5805 43.9744H34.2921H35.1732C35.1619 42.9121 34.439 42.3244 33.5579 42.0984C33.2869 42.0306 33.0045 41.9967 32.7221 41.9967C32.3832 41.9967 32.0218 42.0419 31.6829 42.1436H31.6603C31.6321 42.1549 31.6039 42.1634 31.5756 42.1718C31.5474 42.1803 31.5191 42.1888 31.4909 42.2001C31.4853 42.2001 31.4824 42.2029 31.4796 42.2057C31.4768 42.2086 31.474 42.2114 31.4683 42.2114C31.4401 42.2227 31.4147 42.234 31.3892 42.2453C31.3638 42.2566 31.3384 42.2679 31.3102 42.2792C31.3045 42.2792 31.3017 42.282 31.2989 42.2849C31.2961 42.2877 31.2932 42.2905 31.2876 42.2905C30.6889 42.573 30.2258 43.0816 30.2258 43.8614C30.2258 44.596 30.6099 45.0255 31.1295 45.2967C31.3215 45.3984 31.5361 45.4888 31.762 45.5567C31.7676 45.5567 31.7733 45.5595 31.7789 45.5623C31.7846 45.5651 31.7902 45.568 31.7959 45.568L31.9992 45.6358C32.1567 45.6797 32.3136 45.719 32.4651 45.757C33.1715 45.9341 33.7613 46.0819 33.7613 46.5286C33.7613 46.9807 33.2643 47.1502 32.7786 47.1502C32.1009 47.1502 31.649 46.9241 31.6152 46.2008H31.1069H30.0225C30.0225 47.1276 30.463 47.7266 31.1069 48.0543C31.1521 48.0882 31.2085 48.1108 31.265 48.1334C31.2707 48.1334 31.2735 48.1362 31.2763 48.1391C31.2791 48.1419 31.2819 48.1447 31.2876 48.1447L31.457 48.2125H31.4683C31.5248 48.2351 31.5813 48.2577 31.6377 48.269H31.649C31.6976 48.2885 31.7545 48.2995 31.8054 48.3095C31.8137 48.3111 31.8218 48.3127 31.8298 48.3142C31.8411 48.3255 31.8524 48.3255 31.8637 48.3255C31.8919 48.3312 31.9229 48.3368 31.9539 48.3425C31.985 48.3481 32.0161 48.3538 32.0444 48.3594H32.0557C32.0839 48.3651 32.115 48.3679 32.146 48.3707C32.1771 48.3736 32.2082 48.3764 32.2364 48.382H32.2703C32.2985 48.382 32.3296 48.3849 32.3606 48.3877C32.3917 48.3905 32.4228 48.3933 32.451 48.3933H32.4849H32.6769H32.8689H32.9028C32.9311 48.3933 32.9621 48.3905 32.9932 48.3877C33.0242 48.3849 33.0553 48.382 33.0835 48.382H33.1061C33.2417 48.3707 33.3772 48.3481 33.5015 48.3255H33.5128C33.5466 48.3199 33.5805 48.3114 33.6144 48.3029ZM39.5105 43.4207H40.6062V42.1323H39.5105H36.4947H36.0994V48.269H36.6867H37.692V45.907H39.5105H40.2108V44.6751H39.5105H37.692V43.4207H39.5105ZM36.8449 34.7298L39.9398 40.2788V40.2901H42.0746H42.3231V31.3845H42.0746H40.1431V36.8657H40.1205L37.0256 31.3845H34.6423V36.7979V40.2788H35.817H36.8223V34.7298H36.8449ZM45.3841 48.269H46.299L46.3103 46.8789H45.3954H42.9443V45.7149H45.3954H45.9375V44.483H45.3954H42.9443V43.4094H45.3954H46.2312V42.1323H45.3954H42.436H41.3404V47.3423V48.269H45.3841ZM46.2086 37.5325L47.1574 36.538L49.552 40.2788H52.4323L48.7275 34.8767L52.0144 31.3732H49.1341L46.2086 34.7863V31.3732H44.1416H43.8931V40.2788H44.1416H46.2086V37.5325ZM50.9216 47.4346C50.9433 47.6867 50.9793 48.1056 51.0882 48.269L52.6808 48.2577C52.498 48.0748 52.4545 47.3914 52.4317 47.0323C52.4277 46.97 52.4244 46.9174 52.421 46.8789C52.3645 46.2913 52.1838 45.568 51.5287 45.4097V45.3984C52.1725 45.1498 52.4888 44.5282 52.4888 43.8614C52.4888 42.6182 51.427 42.1323 50.3427 42.1323H48.0498H47.2139V48.2577H48.1288H48.8065V46.0313H50.0151C50.7606 46.0313 50.8623 46.6642 50.9075 47.2858C50.9119 47.3213 50.9163 47.373 50.9216 47.4346Z" fill="#5673CE"/>
</svg>
