<svg width="22" height="22" viewBox="0 0 22 22" fill="none" xmlns="http://www.w3.org/2000/svg">
<path d="M7.97508 11.9167C6.50841 10.9083 5.50008 9.25833 5.50008 7.33333C8.15841 7.33333 10.6334 6.325 12.3751 4.58333C13.4751 5.86667 14.8501 6.875 16.5001 7.51667C16.4084 9.35 15.4917 10.9083 14.0251 11.9167H16.6834C17.6917 10.6333 18.3334 9.075 18.3334 7.33333C18.3334 3.3 15.0334 0 11.0001 0C6.96675 0 3.66675 3.3 3.66675 7.33333C3.66675 9.075 4.30841 10.6333 5.31675 11.9167H7.97508ZM11.0001 1.83333C13.7501 1.83333 16.0417 3.85 16.4084 6.50833C15.1251 5.95833 13.9334 5.04167 13.0167 3.94167C12.8334 3.66667 12.7417 3.48333 12.4667 3.20833C12.1917 3.48333 12.1001 3.66667 11.8251 3.85C10.1751 5.40833 7.97508 6.41667 5.59175 6.41667C6.05008 3.85 8.25008 1.83333 11.0001 1.83333Z" fill="#5673CE"/>
<path d="M16.5 12.8333H5.5C2.475 12.8333 0 15.3083 0 18.3333V21.0833C0 21.6333 0.366667 22 0.916667 22H21.0833C21.6333 22 22 21.6333 22 21.0833V18.3333C22 15.3083 19.525 12.8333 16.5 12.8333ZM20.1667 20.1667H1.83333V18.3333C1.83333 16.3167 3.48333 14.6667 5.5 14.6667H16.5C18.5167 14.6667 20.1667 16.3167 20.1667 18.3333V20.1667Z" fill="#5673CE"/>
</svg>
