<svg width="238" height="120" viewBox="0 0 238 120" fill="none" xmlns="http://www.w3.org/2000/svg">
<path d="M116.938 67.8506C116.938 69.2542 116.681 70.3206 116.166 71.0498C115.651 71.7744 114.892 72.1367 113.89 72.1367C112.905 72.1367 112.151 71.7812 111.627 71.0703C111.103 70.3548 110.834 69.3158 110.82 67.9531V66.1689C110.82 64.7699 111.08 63.7103 111.6 62.9902C112.119 62.2702 112.878 61.9102 113.876 61.9102C114.86 61.9102 115.612 62.2588 116.132 62.9561C116.651 63.6488 116.92 64.6719 116.938 66.0254V67.8506ZM116.118 66.0664C116.118 64.9271 115.931 64.0658 115.558 63.4824C115.188 62.8991 114.628 62.6074 113.876 62.6074C113.138 62.6074 112.582 62.8923 112.208 63.4619C111.834 64.0316 111.643 64.8724 111.634 65.9844V67.9395C111.634 69.0742 111.825 69.9424 112.208 70.5439C112.595 71.1455 113.156 71.4463 113.89 71.4463C114.619 71.4463 115.17 71.1523 115.544 70.5645C115.922 69.9766 116.114 69.1152 116.118 67.9805V66.0664ZM124.937 72H118.702V71.3711L122.113 67.502C122.678 66.8503 123.07 66.3125 123.289 65.8887C123.508 65.4648 123.617 65.0524 123.617 64.6514C123.617 64.0225 123.433 63.5257 123.063 63.1611C122.694 62.792 122.186 62.6074 121.539 62.6074C120.869 62.6074 120.327 62.8216 119.912 63.25C119.502 63.6784 119.297 64.2344 119.297 64.918H118.483C118.483 64.3574 118.609 63.847 118.859 63.3867C119.115 62.9264 119.475 62.5664 119.939 62.3066C120.409 62.0423 120.942 61.9102 121.539 61.9102C122.451 61.9102 123.161 62.1494 123.672 62.6279C124.187 63.1064 124.444 63.7581 124.444 64.583C124.444 65.0479 124.299 65.556 124.007 66.1074C123.72 66.6589 123.212 67.347 122.482 68.1719L119.707 71.3096H124.937V72ZM126.399 71.5078C126.399 71.3483 126.45 71.2139 126.55 71.1045C126.655 70.9906 126.798 70.9336 126.98 70.9336C127.163 70.9336 127.306 70.9906 127.411 71.1045C127.516 71.2139 127.568 71.3483 127.568 71.5078C127.568 71.6673 127.516 71.7995 127.411 71.9043C127.306 72.0046 127.163 72.0547 126.98 72.0547C126.798 72.0547 126.655 72.0046 126.55 71.9043C126.45 71.7995 126.399 71.6673 126.399 71.5078ZM126.413 65.1982C126.413 65.0387 126.463 64.9043 126.563 64.7949C126.668 64.681 126.812 64.624 126.994 64.624C127.176 64.624 127.32 64.681 127.425 64.7949C127.53 64.9043 127.582 65.0387 127.582 65.1982C127.582 65.3577 127.53 65.4899 127.425 65.5947C127.32 65.695 127.176 65.7451 126.994 65.7451C126.812 65.7451 126.668 65.695 126.563 65.5947C126.463 65.4899 126.413 65.3577 126.413 65.1982ZM131.226 66.5791H132.073C132.543 66.5791 132.953 66.4971 133.304 66.333C133.655 66.1644 133.921 65.9365 134.104 65.6494C134.29 65.3577 134.384 65.0228 134.384 64.6445C134.384 64.0065 134.204 63.5075 133.844 63.1475C133.484 62.7874 132.966 62.6074 132.292 62.6074C131.654 62.6074 131.13 62.7965 130.72 63.1748C130.314 63.5485 130.111 64.043 130.111 64.6582H129.291C129.291 64.1432 129.421 63.6738 129.681 63.25C129.94 62.8216 130.3 62.4912 130.761 62.2588C131.221 62.0264 131.731 61.9102 132.292 61.9102C133.194 61.9102 133.905 62.1562 134.425 62.6484C134.944 63.1406 135.204 63.8151 135.204 64.6719C135.204 65.1504 135.051 65.5924 134.746 65.998C134.445 66.3991 134.031 66.6999 133.502 66.9004C134.122 67.0736 134.591 67.3721 134.91 67.7959C135.229 68.2152 135.389 68.7165 135.389 69.2998C135.389 70.152 135.111 70.8379 134.555 71.3574C133.999 71.877 133.256 72.1367 132.326 72.1367C131.734 72.1367 131.189 72.0182 130.692 71.7812C130.2 71.5443 129.817 71.2139 129.544 70.79C129.275 70.3617 129.141 69.8649 129.141 69.2998H129.961C129.961 69.9333 130.182 70.4505 130.624 70.8516C131.066 71.248 131.633 71.4463 132.326 71.4463C133.033 71.4463 133.582 71.2663 133.974 70.9062C134.37 70.5417 134.568 70.0153 134.568 69.3271C134.568 68.6618 134.354 68.1536 133.926 67.8027C133.502 67.4518 132.875 67.2764 132.046 67.2764H131.226V66.5791ZM143.175 67.8506C143.175 69.2542 142.917 70.3206 142.402 71.0498C141.887 71.7744 141.129 72.1367 140.126 72.1367C139.142 72.1367 138.387 71.7812 137.863 71.0703C137.339 70.3548 137.07 69.3158 137.057 67.9531V66.1689C137.057 64.7699 137.316 63.7103 137.836 62.9902C138.355 62.2702 139.114 61.9102 140.112 61.9102C141.097 61.9102 141.849 62.2588 142.368 62.9561C142.888 63.6488 143.157 64.6719 143.175 66.0254V67.8506ZM142.354 66.0664C142.354 64.9271 142.168 64.0658 141.794 63.4824C141.425 62.8991 140.864 62.6074 140.112 62.6074C139.374 62.6074 138.818 62.8923 138.444 63.4619C138.071 64.0316 137.879 64.8724 137.87 65.9844V67.9395C137.87 69.0742 138.062 69.9424 138.444 70.5439C138.832 71.1455 139.392 71.4463 140.126 71.4463C140.855 71.4463 141.407 71.1523 141.78 70.5645C142.159 69.9766 142.35 69.1152 142.354 67.9805V66.0664Z" fill="#4A4A4A"/>
<path d="M113.779 37.4912V42H111.143V29.2031H116.135C117.096 29.2031 117.939 29.3789 118.666 29.7305C119.398 30.082 119.961 30.583 120.354 31.2334C120.746 31.8779 120.942 32.6133 120.942 33.4395C120.942 34.6934 120.512 35.6836 119.65 36.4102C118.795 37.1309 117.608 37.4912 116.091 37.4912H113.779ZM113.779 35.3555H116.135C116.832 35.3555 117.362 35.1914 117.726 34.8633C118.095 34.5352 118.279 34.0664 118.279 33.457C118.279 32.8301 118.095 32.3232 117.726 31.9365C117.356 31.5498 116.847 31.3506 116.196 31.3389H113.779V35.3555ZM125.275 42H122.727V28.5H125.275V42ZM132.887 42C132.77 41.7715 132.685 41.4873 132.632 41.1475C132.017 41.833 131.217 42.1758 130.232 42.1758C129.301 42.1758 128.527 41.9062 127.912 41.3672C127.303 40.8281 126.998 40.1484 126.998 39.3281C126.998 38.3203 127.37 37.5469 128.114 37.0078C128.864 36.4688 129.945 36.1963 131.357 36.1904H132.526V35.6455C132.526 35.2061 132.412 34.8545 132.184 34.5908C131.961 34.3271 131.606 34.1953 131.12 34.1953C130.692 34.1953 130.355 34.2979 130.109 34.5029C129.869 34.708 129.749 34.9893 129.749 35.3467H127.209C127.209 34.7959 127.379 34.2861 127.719 33.8174C128.059 33.3486 128.539 32.9824 129.16 32.7188C129.781 32.4492 130.479 32.3145 131.252 32.3145C132.424 32.3145 133.353 32.6104 134.038 33.2021C134.729 33.7881 135.075 34.6143 135.075 35.6807V39.8027C135.081 40.7051 135.207 41.3877 135.453 41.8506V42H132.887ZM130.786 40.2334C131.161 40.2334 131.507 40.1514 131.823 39.9873C132.14 39.8174 132.374 39.5918 132.526 39.3105V37.6758H131.577C130.306 37.6758 129.629 38.1152 129.547 38.9941L129.538 39.1436C129.538 39.46 129.649 39.7207 129.872 39.9258C130.095 40.1309 130.399 40.2334 130.786 40.2334ZM140.437 38.4053L142.194 32.4902H144.919L141.096 43.4766L140.885 43.9775C140.316 45.2197 139.379 45.8408 138.072 45.8408C137.703 45.8408 137.328 45.7852 136.947 45.6738V43.749L137.334 43.7578C137.814 43.7578 138.172 43.6846 138.406 43.5381C138.646 43.3916 138.834 43.1484 138.969 42.8086L139.268 42.0264L135.937 32.4902H138.67L140.437 38.4053ZM153.963 38.8975L155.729 32.4902H158.384L155.176 42H152.75L149.542 32.4902H152.196L153.963 38.8975ZM162.189 42H159.641V32.4902H162.189V42ZM159.491 30.0293C159.491 29.6484 159.617 29.335 159.869 29.0889C160.127 28.8428 160.476 28.7197 160.915 28.7197C161.349 28.7197 161.694 28.8428 161.952 29.0889C162.21 29.335 162.339 29.6484 162.339 30.0293C162.339 30.416 162.207 30.7324 161.943 30.9785C161.686 31.2246 161.343 31.3477 160.915 31.3477C160.487 31.3477 160.142 31.2246 159.878 30.9785C159.62 30.7324 159.491 30.416 159.491 30.0293ZM163.895 37.1748C163.895 35.6924 164.226 34.5117 164.888 33.6328C165.556 32.7539 166.467 32.3145 167.621 32.3145C168.547 32.3145 169.312 32.6602 169.915 33.3516V28.5H172.464V42H170.17L170.047 40.9893C169.414 41.7803 168.6 42.1758 167.604 42.1758C166.484 42.1758 165.585 41.7363 164.905 40.8574C164.231 39.9727 163.895 38.7451 163.895 37.1748ZM166.435 37.3594C166.435 38.25 166.59 38.9326 166.9 39.4072C167.211 39.8818 167.662 40.1191 168.254 40.1191C169.039 40.1191 169.593 39.7881 169.915 39.126V35.373C169.599 34.7109 169.051 34.3799 168.271 34.3799C167.047 34.3799 166.435 35.373 166.435 37.3594ZM178.81 42.1758C177.415 42.1758 176.278 41.748 175.399 40.8926C174.526 40.0371 174.09 38.8975 174.09 37.4736V37.2275C174.09 36.2725 174.274 35.4199 174.644 34.6699C175.013 33.9141 175.534 33.334 176.208 32.9297C176.888 32.5195 177.661 32.3145 178.528 32.3145C179.829 32.3145 180.852 32.7246 181.596 33.5449C182.346 34.3652 182.721 35.5283 182.721 37.0342V38.0713H176.665C176.747 38.6924 176.993 39.1904 177.403 39.5654C177.819 39.9404 178.344 40.1279 178.977 40.1279C179.955 40.1279 180.72 39.7734 181.271 39.0645L182.519 40.4619C182.138 41.001 181.622 41.4229 180.972 41.7275C180.321 42.0264 179.601 42.1758 178.81 42.1758ZM178.52 34.3711C178.016 34.3711 177.605 34.541 177.289 34.8809C176.979 35.2207 176.779 35.707 176.691 36.3398H180.225V36.1377C180.213 35.5752 180.061 35.1416 179.768 34.8369C179.475 34.5264 179.059 34.3711 178.52 34.3711ZM183.775 37.1572C183.775 36.2139 183.957 35.373 184.32 34.6348C184.684 33.8965 185.205 33.3252 185.885 32.9209C186.57 32.5166 187.364 32.3145 188.267 32.3145C189.55 32.3145 190.596 32.707 191.404 33.4922C192.219 34.2773 192.673 35.3438 192.767 36.6914L192.784 37.3418C192.784 38.8008 192.377 39.9727 191.562 40.8574C190.748 41.7363 189.655 42.1758 188.284 42.1758C186.913 42.1758 185.817 41.7363 184.997 40.8574C184.183 39.9785 183.775 38.7832 183.775 37.2715V37.1572ZM186.315 37.3418C186.315 38.2441 186.485 38.9355 186.825 39.416C187.165 39.8906 187.651 40.1279 188.284 40.1279C188.899 40.1279 189.38 39.8936 189.726 39.4248C190.071 38.9502 190.244 38.1943 190.244 37.1572C190.244 36.2725 190.071 35.5869 189.726 35.1006C189.38 34.6143 188.894 34.3711 188.267 34.3711C187.646 34.3711 187.165 34.6143 186.825 35.1006C186.485 35.5811 186.315 36.3281 186.315 37.3418Z" fill="#2B2A29"/>
<g filter="url(#filter0_d)">
<path d="M40 92C29.3171 92 19.2683 87.8374 11.7236 80.2764C4.1626 72.7317 0 62.6829 0 52C0 41.3171 4.1626 31.2683 11.7236 23.7236C19.2683 16.1626 29.3171 12 40 12C50.6829 12 60.7317 16.1626 68.2764 23.7236C75.8374 31.2683 80 41.3171 80 52C80 59.8862 77.6585 67.5772 73.2195 74.2114C72.9106 74.6667 72.4065 74.9268 71.8699 74.9268C71.5447 74.9268 71.2358 74.8293 70.9756 74.6504C70.2276 74.1463 70.0325 73.1382 70.5203 72.3902C74.6016 66.3089 76.748 59.252 76.748 52C76.748 31.7398 60.2602 15.252 40 15.252C19.7398 15.252 3.25203 31.7398 3.25203 52C3.25203 72.2602 19.7398 88.748 40 88.748C46.7154 88.748 53.3008 86.9106 59.0081 83.4472C59.2683 83.3008 59.5447 83.2195 59.8537 83.2195C60.4228 83.2195 60.9431 83.5122 61.252 84C61.7236 84.7642 61.4634 85.7724 60.6992 86.2276C54.4715 90 47.3171 92 40 92Z" fill="#5673CE"/>
<path d="M32.8614 68.374C31.8858 68.374 30.8939 68.1138 30.0158 67.6098C28.2272 66.5854 27.1541 64.7155 27.1541 62.6504V41.3496C27.1541 39.2683 28.2272 37.4147 30.0158 36.3903C30.8939 35.8862 31.8695 35.626 32.8614 35.626C33.8532 35.626 34.8288 35.9025 35.7232 36.4065L54.0646 47.0569C55.8532 48.0976 56.9101 49.935 56.9101 52C56.9101 54.0651 55.8532 55.9187 54.0646 56.9431L35.7232 67.5935C34.8288 68.1138 33.8532 68.374 32.8614 68.374ZM32.8614 38.8781C32.4386 38.8781 32.0158 38.9919 31.6419 39.2033C30.8614 39.6423 30.4061 40.4553 30.4061 41.3496V62.6504C30.4061 63.561 30.8614 64.3415 31.6419 64.7968C32.0158 65.0082 32.4386 65.122 32.8614 65.122C33.2841 65.122 33.7069 65.0082 34.0809 64.7805L52.4223 54.1301C53.2028 53.6748 53.6419 52.8943 53.6419 52C53.6419 51.0895 53.1866 50.309 52.4223 49.8699L34.0809 39.2195C33.6906 38.9919 33.2841 38.8781 32.8614 38.8781Z" fill="#5673CE"/>
</g>
<defs>
<filter id="filter0_d" x="-20" y="0" width="120" height="120" filterUnits="userSpaceOnUse" color-interpolation-filters="sRGB">
<feFlood flood-opacity="0" result="BackgroundImageFix"/>
<feColorMatrix in="SourceAlpha" type="matrix" values="0 0 0 0 0 0 0 0 0 0 0 0 0 0 0 0 0 0 127 0"/>
<feOffset dy="8"/>
<feGaussianBlur stdDeviation="10"/>
<feColorMatrix type="matrix" values="0 0 0 0 0.360784 0 0 0 0 0.658824 0 0 0 0 1 0 0 0 0.3 0"/>
<feBlend mode="normal" in2="BackgroundImageFix" result="effect1_dropShadow"/>
<feBlend mode="normal" in="SourceGraphic" in2="effect1_dropShadow" result="shape"/>
</filter>
</defs>
</svg>
