<svg width="60" height="60" viewBox="0 0 60 60" fill="none" xmlns="http://www.w3.org/2000/svg">
<path fill-rule="evenodd" clip-rule="evenodd" d="M13.0001 17C13.0001 7.61249 20.6126 0 30 0C39.3875 0 47 7.61249 47 17C47 26.3875 39.3875 33.9999 30 33.9999C20.6126 33.9874 13.0126 26.3875 13.0001 17ZM15.0001 17C15.0001 25.2875 21.7126 31.9999 30 31.9999C38.2875 31.9999 45 25.2875 45 17C45 8.71249 38.2875 2 30 2C21.7251 2.0125 15.0126 8.72499 15.0001 17ZM18.9998 16.9999H16.9999C17.0124 9.82493 22.8248 4.01244 29.9998 3.99994V5.99994C23.9248 6.01244 19.0123 10.9249 18.9998 16.9999ZM18.6374 33.2125L11.725 25.5375C10.8 24.4875 9.34997 24.0375 7.99997 24.3875V12.0001C7.99997 9.78756 6.21248 8.00006 3.99999 8.00006C1.78749 8.00006 0 9.78756 0 12.0001V33C0 33.175 0.0374999 33.3375 0.125 33.4875L9.99997 51.2625V59C9.99997 59.55 10.45 60 11 60H24.9999C25.5499 60 25.9999 59.55 25.9999 59V46C25.9874 40.7375 23.1874 35.8625 18.6374 33.2125ZM23.9999 58H12V52H23.9999V58ZM23.9999 50H11.5875L1.99999 32.7375V12.0001C1.99999 10.9001 2.89999 10.0001 3.99999 10.0001C5.09998 10.0001 5.99998 10.9001 5.99998 12.0001V25.625C4.74998 27.075 4.77498 29.2375 6.06248 30.6625L14.25 39.675L15.7249 38.325L7.53748 29.3125C6.88748 28.6 6.91248 27.4875 7.59998 26.8C7.94997 26.45 8.43747 26.25 8.93747 26.2625C9.43747 26.275 9.89997 26.4875 10.2375 26.8625L17.2499 34.65C17.3374 34.7375 17.4374 34.8125 17.5499 34.875C21.5374 37.15 23.9874 41.3875 23.9999 45.975V50ZM56 8.00006C53.7875 8.00006 52 9.78756 52 12.0001V24.3875C51.675 24.3 51.3375 24.2625 51.0125 24.275C49.9625 24.3 48.975 24.75 48.275 25.5375L41.3625 33.2125C36.8126 35.8625 34.0001 40.7375 34.0001 46V59C34.0001 59.55 34.4501 60 35.0001 60H49C49.55 60 50 59.55 50 59V51.2625L58.7625 35.3875C59.575 34 60 32.425 60 30.825V12.0001C60 9.78756 58.2125 8.00006 56 8.00006ZM48 58H36.0001V52H48V58ZM58 30.825C58 32.0875 57.6625 33.3125 57.025 34.4L48.4125 50H36.0001V46C36.0126 41.3875 38.4876 37.1375 42.5 34.8625C42.5875 34.8125 42.675 34.7375 42.75 34.6625L49.7625 26.875C50.1 26.5 50.5625 26.2875 51.0625 26.275C52.0625 26.25 52.9 27.0375 52.925 28.0375C52.9375 28.5125 52.7625 28.9625 52.45 29.3125L44.2625 38.325L45.7375 39.675L53.925 30.6625C55.2125 29.2375 55.25 27.0875 53.9875 25.625V12.0001C53.9875 10.9001 54.8875 10.0001 55.9875 10.0001C57.0875 10.0001 57.9875 10.9001 57.9875 12.0001V30.825H58ZM19.9998 53.9999H21.9998V55.9999H19.9998V53.9999ZM39.9998 53.9999H37.9998V55.9999H39.9998V53.9999ZM40.9999 17.0001C40.9874 23.0751 36.0749 27.9875 30 28V30C37.1749 29.9875 42.9874 24.175 42.9999 17.0001H40.9999ZM35.8748 19.0125C35.6748 18.2375 35.2498 17.5375 34.6373 17C36.2873 15.55 36.4498 13.0251 34.9998 11.3751C34.4748 10.7751 33.7748 10.3376 32.9873 10.1376V8.00006H30.9873V10.0001H28.9873V8.00006H26.9873V10.0001H24.9873C24.4373 10.0001 23.9873 10.4501 23.9873 11.0001V23C23.9873 23.55 24.4373 24 24.9873 24H26.9873V26H28.9873V24H30.9873V26H32.9873V23.8625C35.1373 23.3125 36.4248 21.1375 35.8748 19.0125ZM31.9998 22H25.9998V18H31.9998C33.0998 18 33.9998 18.9 33.9998 20C33.9998 21.1 33.0998 22 31.9998 22ZM31.9998 16H25.9998V12.0001H31.9998C33.0998 12.0001 33.9998 12.9001 33.9998 14.0001C33.9998 15.1 33.0998 16 31.9998 16ZM8.99986 0H10.9999C10.9999 2.2125 12.7873 3.99999 14.9998 3.99999V5.99999C12.7873 5.99999 10.9999 7.78749 10.9999 9.99998H8.99986C8.99986 7.78749 7.21236 5.99999 4.99987 5.99999V3.99999C7.21236 3.99999 8.99986 2.2125 8.99986 0ZM8.31236 4.99999C8.98736 5.44999 9.56236 6.02499 9.99985 6.69999C10.4374 6.02499 11.0124 5.44999 11.6873 4.99999C11.0124 4.54999 10.4374 3.97499 9.99985 3.29999C9.54986 3.97499 8.98736 4.54999 8.31236 4.99999Z" fill="#5673CE"/>
</svg>
