<svg width="25" height="20" viewBox="0 0 25 20" fill="none" xmlns="http://www.w3.org/2000/svg">
<path d="M24.6138 2.36525C23.7088 2.7675 22.7353 3.03701 21.7136 3.16171C22.7554 2.53821 23.5559 1.54465 23.934 0.370072C22.9566 0.949316 21.8745 1.36766 20.7241 1.59694C19.8029 0.611424 18.4916 0 17.0394 0C14.2518 0 11.9871 2.26066 11.9871 5.04827C11.9871 5.44248 12.0314 5.82864 12.1199 6.19871C7.92438 5.98954 4.20354 3.97828 1.70957 0.921158C1.27514 1.66935 1.02977 2.53419 1.02977 3.45937C1.02977 5.21319 1.92277 6.75784 3.27434 7.66291C2.4457 7.63475 1.66935 7.40949 0.985519 7.02735V7.09171C0.985519 9.53741 2.72727 11.5809 5.0362 12.0434C4.61384 12.1561 4.16734 12.2204 3.70475 12.2204C3.37892 12.2204 3.06516 12.1883 2.75543 12.1279C3.39903 14.1352 5.26146 15.5953 7.47385 15.6356C5.74819 16.9911 3.56798 17.7957 1.20274 17.7957C0.79646 17.7957 0.394208 17.7715 0 17.7273C2.23652 19.1633 4.88737 20 7.73934 20C17.0274 20 22.1078 12.3049 22.1078 5.63154L22.0917 4.97586C23.0813 4.2679 23.9381 3.37892 24.6138 2.36525Z" fill="#010002"/>
</svg>
