<svg width="20" height="20" fill="none" xmlns="http://www.w3.org/2000/svg"><path d="M14.468 0H5.52C2.47 0 0 2.47 0 5.52v8.96C0 17.518 2.47 20 5.52 20h8.96c3.038 0 5.52-2.47 5.52-5.52V5.52C19.988 2.47 17.506 0 14.468 0zm3.747 14.468a3.748 3.748 0 01-3.747 3.747H5.52a3.748 3.748 0 01-3.747-3.747V5.52A3.748 3.748 0 015.52 1.773h8.96a3.748 3.748 0 013.747 3.747l-.012 8.948z" fill="#000"/><path d="M9.988 4.846a5.146 5.146 0 00-5.142 5.142A5.158 5.158 0 0010 15.142a5.15 5.15 0 005.154-5.154 5.166 5.166 0 00-5.166-5.142zm0 8.523a3.388 3.388 0 01-3.38-3.38 3.393 3.393 0 013.38-3.37A3.388 3.388 0 0113.368 10a3.377 3.377 0 01-3.38 3.369zm5.367-10.024c-.343 0-.674.142-.922.378-.249.237-.379.58-.379.922 0 .343.142.674.379.922.236.237.579.379.922.379.342 0 .673-.142.922-.379.248-.236.378-.579.378-.922 0-.342-.142-.673-.378-.922a1.277 1.277 0 00-.922-.378z" fill="#000"/></svg>