<svg width="157" height="20" fill="none" xmlns="http://www.w3.org/2000/svg"><path d="M142 0h15l-3.05 2.96h-2.74V19h-3.47V2.96h-2.69L142 0zM0 0h12.83l-2.9 2.93H3.24V7.8h9.36l-2.94 2.95h-6.4v5.32h6.8L13 19H0V0zm22 0h3.97l6.04 15.38L38.03 0H42l-7.89 19h-4.27L22 0zm28.02 0h12.84l-2.91 2.93h-6.68V7.8h9.35l-2.94 2.95H53.3v5.32h6.8L63 19H50l.02-19zM73 2.9L76.08 0h2.52c2.24 0 6.25 1.36 6.22 5.86a5.45 5.45 0 01-4.79 5.65L85 19h-4l-4.55-7.1h-3.4l3.1-2.94h2c.42 0 3.12-.26 3.12-3.05s-2.88-3.03-3.48-3L73 2.9zM96 0h12.86l-2.91 2.93h-6.68V7.8h9.33l-2.94 2.95h-6.37v5.32h6.8L109 19H96V0zm34.7 5.15l1.85-2.48S130.45 0 125.63 0c-4.81 0-6.94 2.87-6.94 5.71s1.8 4.54 6.35 5.64c4.55 1.1 4.64 1.93 4.67 3.06.02 1.28-1.19 2.58-4.2 2.58-3 0-5.66-2.73-5.66-2.73l-1.85 2.6s2.4 3.14 7.8 3.14 7.2-3.19 7.2-6.05c0-2.87-1.73-4.66-6.07-5.76-4.33-1.1-4.93-1.57-4.93-2.97 0-1.4 1.62-2.25 3.46-2.25 3.04 0 5.24 2.18 5.24 2.18z" fill="#05000A"/></svg>