<svg width="60" height="60" fill="none" xmlns="http://www.w3.org/2000/svg"><path fill-rule="evenodd" clip-rule="evenodd" d="M57.364 1.721h.114v.23h-.344l-.344-.115-.115-.344V.689h-.23v-.23h.23V0h.23v.459h.573v.23h-.574v.803l.115.23h.344zm-45.647-.114c.344.23.688.573.803.918.23.459.344.918.344 1.491 0 1.263-.574 2.295-1.606 3.099-1.032.803-2.523 1.147-4.473 1.147h-.458c-.344 0-.688.344-.688.689l-.574 2.295a.862.862 0 01-.803.573H2.657c-.344 0-.574-.23-.459-.573l2.18-9.64a.862.862 0 01.802-.573h3.326c.688 0 1.261 0 1.835.115.459.114.917.23 1.376.459zM7.244 6.31c.803 0 1.491-.23 1.95-.573.459-.345.688-.918.688-1.492 0-.46-.115-.803-.459-.918-.344-.23-.803-.344-1.376-.344h-.459a.862.862 0 00-.803.573l-.458 2.18c-.115.345.114.574.458.574h.46zM59.885.574l-.344-.23-.344.115-.23.23-.228-.23-.23-.115-.23.115-.229.115V.459h-.229v1.492h.23V.803L58.28.69h.344l.114.114v1.147h.23V.803l.23-.114h.458v.114l.115.115v1.033H60v-.918l-.115-.46zM17.337 3.442c1.261 0 2.179.115 2.867.46.573.344.803.917.917 1.606v.344l-.114.46-1.147 4.933c-.115.23-.344.574-.688.574H17.68c-.344 0-.574-.23-.459-.574l.115-.229-.574.344-.688.345-.803.229c-.229.115-.573.115-1.032.115-.573 0-1.147-.23-1.605-.574-.46-.344-.689-.918-.689-1.492s.23-1.147.46-1.606c.343-.46.802-.804 1.49-1.148.459-.23 1.147-.459 1.95-.574l.396-.058c.613-.092 1.137-.171 1.898-.171l.229-.115v-.23c0-.344-.115-.573-.574-.573-.229-.115-.802-.23-1.376-.23-.459 0-1.032.115-1.49.23-.176.044-.318.07-.439.094-.196.037-.338.065-.48.135-.114 0-.343 0-.343-.573l.23-.804s.114-.573.687-.688c.23 0 .344 0 .803-.115.688-.115 1.262-.115 1.95-.115zm0 6.426l.23-.344c.114-.344.343-1.262.343-1.262l-.115-.23c-.042 0-.16.016-.311.035-.26.034-.617.08-.835.08-.345 0-.803.115-1.033.23l-.688.459c-.114.23-.23.459-.23.803l.345.574c.23.115.573.115.918.115.229 0 .458 0 .802-.115l.574-.345zM48.76 3.901c-.573-.344-1.49-.459-2.867-.459-.688 0-1.261 0-1.95.115-.458.115-.573.115-.802.115-.574.115-.688.688-.688.688l-.115.918c-.115.46.23.46.344.46.142-.071.284-.099.48-.136.12-.023.262-.05.438-.094.458-.115 1.032-.23 1.49-.23.574 0 1.147.115 1.377.23.344 0 .458.344.458.574v.23l-.229.114c-.917 0-1.606.115-2.294.23-.803.114-1.49.344-1.95.573a3.131 3.131 0 00-1.376 1.033c-.344.459-.458 1.033-.458 1.606 0 .574.23 1.148.688 1.492.459.345 1.032.574 1.605.574.46 0 .803 0 1.033-.115l.802-.23.688-.344.574-.344v.23c-.115.344.115.573.459.573h1.492c.344 0 .573-.344.688-.573l1.147-4.935.114-.459v-.344c-.23-.574-.573-1.147-1.147-1.492zm-2.523 5.623l-.23.344-.573.345c-.344.115-.688.115-.917.115-.344 0-.688 0-.918-.115l-.343-.574c0-.344.114-.574.229-.803.114-.23.344-.345.688-.46a2.3 2.3 0 011.032-.229c.218 0 .575-.046.836-.08.15-.02.27-.035.311-.035l.115.23s-.115.918-.23 1.262zm-5.964-7.803c.46.23.688.574.918.918.114.345.23.804.344 1.492 0 1.262-.574 2.295-1.606 3.098-1.032.804-2.523 1.148-4.472 1.148h-.46a.863.863 0 00-.802.574l-.573 2.295a.862.862 0 01-.803.573h-1.606c-.344 0-.573-.23-.459-.573l2.18-9.64a.862.862 0 01.802-.573h3.326c.688 0 1.262 0 1.835.115.573.114 1.032.23 1.376.573zM35.8 6.311c.803 0 1.491-.23 1.95-.573.459-.345.688-.804.803-1.377 0-.345-.115-.689-.459-.918-.344-.23-.803-.345-1.376-.345h-.459a.862.862 0 00-.802.574l-.46 2.066c-.114.344.115.573.46.573h.343zm18.81-4.59c.114-.344-.115-.574-.46-.574h-1.376c-.344 0-.573.23-.688.46l-.115.114-.114.344-1.95 8.951-.114.23c-.115.344.114.573.344.573h1.49c.344 0 .574-.23.689-.459l.114-.114 2.18-9.525zM29.034 3.557h1.835c.442 0 .133.548.022.744-.033.058-.049.086-.022.06l-6.308 10.671c-.23.345-.688.574-1.032.574h-1.606c-.344 0-.459-.23-.23-.574l1.492-2.41s.114-.114 0-.917c-.23-1.492-1.262-7.574-1.262-7.574-.115-.344.115-.574.459-.574h1.376c.344 0 .688.23.803.574l.688 4.246h.23c.229-.344 2.522-4.246 2.522-4.246.23-.344.689-.574 1.033-.574zM56.917 28.22a.911.911 0 00.915-.915v-3.55a4.234 4.234 0 00-4.225-4.226H4.224A4.234 4.234 0 000 23.756v32.017A4.234 4.234 0 004.224 60h49.383a4.234 4.234 0 004.225-4.227V30.277a.911.911 0 00-.915-.916.911.911 0 00-.915.916v25.496a2.397 2.397 0 01-2.395 2.396H4.224a2.397 2.397 0 01-2.394-2.396V23.756a2.396 2.396 0 012.394-2.396h49.383a2.396 2.396 0 012.395 2.396v3.56c0 .497.406.904.915.904zm-37.692 8.16h1.852c.7 0 1.243.26 1.243 1.05 0 .736-.509.995-1.243.995h-1.852V36.38zm1.784-3.199h-1.796v1.707h1.796c.395 0 .949-.215.949-.848 0-.655-.463-.859-.949-.859zm8.46.667h.023l.994 3.12h-2.022l1.006-3.12zm-14.83 9.573h-1.265V44.8h1.333c.485 0 .734-.26.734-.724.011-.452-.35-.655-.802-.655zm5.794.418h.023l.677 2.147h-1.39l.69-2.147zm29.639-.418h-1.265V44.8h1.344c.486 0 .734-.26.734-.724 0-.452-.361-.655-.813-.655zm4.205 3.918l.008.071c.248.486.282 1.063.034 1.56a1.843 1.843 0 01-1.683 1.107h-1.582a1.79 1.79 0 01-1.14-.395 1.838 1.838 0 01-1.141.395H47.18c-.158 0-.305-.022-.452-.056a1.978 1.978 0 01-.452.056h-4.97c-.982 0-1.784-.78-1.818-1.763a1.821 1.821 0 01-1.819 1.763h-1.592c-.396 0-.757-.135-1.062-.35-.666.305-1.468.475-2.35.475-.88 0-1.66-.17-2.315-.486a1.812 1.812 0 01-1.084.361h-1.638c-.395 0-.768-.124-1.073-.35-.305.226-.678.35-1.073.35H23.98c-.068 0-.147 0-.215-.011-.08.011-.147.011-.226.011h-1.66a1.824 1.824 0 01-1.446-.712c-.339.441-.87.712-1.446.712h-3.332c-.418 0-.825-.135-1.14-.395a1.837 1.837 0 01-1.142.395h-1.592c-.497 0-.938-.192-1.265-.508a1.803 1.803 0 01-1.265.508H7.658a1.83 1.83 0 01-1.83-1.83v-2.928a1.83 1.83 0 01-1.83-1.83v-1.38c0-.338.102-.655.26-.926a1.735 1.735 0 01-.26-.927v-1.932c0-.272.057-.532.17-.769a1.871 1.871 0 01-.17-.768v-1.933c0-.271.057-.531.17-.768a1.872 1.872 0 01-.17-.769v-1.944a1.83 1.83 0 011.83-1.83h9.657c.249 0 .498.056.712.146.226-.102.463-.147.712-.147H21.2c1.197 0 2.214.226 3.005.678.892.509 1.49 1.277 1.75 2.238l.644-1.729a1.82 1.82 0 011.706-1.187h2.35c.756 0 1.434.475 1.705 1.187l.44 1.164v-.531a1.83 1.83 0 011.83-1.831h2.383a1.81 1.81 0 011.559.87c.328-.52.904-.87 1.559-.87h2.18c.282 0 .553.068.79.18.238-.112.509-.18.791-.18h2.316c.598 0 1.13.294 1.457.735l.079-.09c.35-.396.858-.634 1.39-.634h2.88a1.83 1.83 0 011.32 3.097l-2.27 2.418 2.87 4.182c.384.565.429 1.289.112 1.887a1.961 1.961 0 01-.474.577c.474.587.734 1.322.734 2.158 0 .577-.135 1.12-.361 1.594.135.35.237.768.282 1.266v.034c.012.033.012.079.012.124.009.192.025.347.037.46zM5.828 31.373v1.944h9.657v-1.944H5.83zm0 3.764v1.65h9.657v-1.933H5.828v.283zm0 3.21v1.932h9.658v-1.933H5.828zm4.123 5.164h1.118v-1.379H5.828v1.38h1.819v4.757H9.25v-4.758h.7zm5.602 4.442a.946.946 0 00.102.316l1.581-.034c-.183-.183-.226-.866-.249-1.225a8.119 8.119 0 00-.01-.154c-.034-.474-.17-1.04-.565-1.322l-.012-.011a.285.285 0 01-.033-.023c-.012-.008-.023-.017-.034-.023a.034.034 0 01-.017-.005.044.044 0 00-.017-.006l-.068-.034a.04.04 0 01-.017-.005c-.006-.003-.011-.006-.017-.006l-.101-.034v-.011c.045-.011.09-.034.135-.057a.06.06 0 01.017-.011l.017-.011.017-.008c.02-.01.045-.02.062-.038.023 0 .034-.01.045-.022l.025-.016a.289.289 0 00.054-.04c.012 0 .023-.012.034-.023.017-.017.034-.031.05-.045a.738.738 0 00.052-.046c.305-.316.452-.757.452-1.209 0-1.006-.7-1.514-1.548-1.672h-.034a.58.58 0 00-.079-.012c-.025-.003-.052-.006-.079-.011h-.068a.531.531 0 01-.067-.006.531.531 0 00-.068-.005c-.068-.012-.136-.012-.204-.012h-3.117v6.138h1.593v-2.226h1.208c.746 0 .847.633.893 1.254v.045l.006.087c.01.14.025.34.061.524zm6.337.316h1.682l-2.292-6.125h-1.627l-2.293 6.125h1.638l.068-.18.316-.916h2.135l.373 1.096zm.858-8.182c.159-.046.305-.09.452-.159.87-.395 1.435-1.13 1.457-2.463a2.3 2.3 0 00-.203-.972 1.979 1.979 0 00-.361-.543c0-.005-.003-.008-.006-.011-.003-.003-.006-.006-.006-.011a.738.738 0 00-.088-.09l-.047-.046-.012-.011-.169-.136h-.011l-.17-.102c-.016 0-.027-.006-.04-.013a1.84 1.84 0 01-.163-.077c-.011-.006-.02-.008-.028-.011l-.029-.011-.203-.068c.7-.35 1.175-.995 1.175-1.797v-.226a.296.296 0 00-.006-.051.294.294 0 01-.005-.051.079.079 0 00-.005-.02c-.003-.01-.007-.023-.007-.037 0-.017-.003-.03-.005-.045-.003-.014-.006-.028-.006-.045a.078.078 0 00-.004-.019c-.003-.011-.007-.024-.007-.038-.006-.01-.009-.025-.012-.039-.003-.014-.005-.028-.01-.04-.007-.006-.01-.016-.013-.027a.354.354 0 01-.02-.068.166.166 0 00-.013-.04.186.186 0 01-.011-.029.2.2 0 00-.012-.028.16.16 0 00-.022-.067.186.186 0 01-.012-.029.185.185 0 00-.01-.028l-.035-.068a.148.148 0 00-.017-.028.243.243 0 01-.017-.028c-.011-.012-.022-.034-.034-.057-.005-.005-.01-.014-.017-.023a.164.164 0 00-.016-.022.25.25 0 00-.017-.028c-.006-.009-.012-.017-.017-.029a.098.098 0 01-.017-.022.158.158 0 00-.017-.023.198.198 0 01-.045-.056.153.153 0 01-.017-.023l-.017-.023-.045-.045-.046-.045-.045-.045c-.005-.006-.014-.011-.022-.017a.158.158 0 01-.023-.017.11.11 0 01-.028-.023.11.11 0 00-.028-.022.137.137 0 00-.023-.017.164.164 0 01-.023-.017.197.197 0 00-.056-.045.106.106 0 00-.023-.017.153.153 0 01-.022-.017.24.24 0 01-.029-.017l-.028-.017c-.005-.006-.014-.011-.022-.017a.158.158 0 01-.023-.017.248.248 0 00-.056-.034.074.074 0 01-.04-.014.354.354 0 00-.017-.009l-.068-.034a.161.161 0 00-.028-.01c-.008-.004-.017-.006-.028-.012l-.068-.034c-.011-.006-.02-.008-.028-.011a.185.185 0 01-.028-.012.162.162 0 00-.034-.01c-.012-.004-.023-.006-.034-.012a.2.2 0 00-.028-.012.186.186 0 01-.029-.01.16.16 0 00-.034-.012c-.01-.003-.022-.006-.033-.011a.197.197 0 00-.029-.012.185.185 0 01-.028-.011.16.16 0 00-.034-.011c-.011-.003-.022-.006-.034-.012a.078.078 0 01-.019-.004.135.135 0 00-.037-.007.162.162 0 00-.034-.011.155.155 0 01-.034-.012.08.08 0 01-.019-.004.136.136 0 00-.037-.007.205.205 0 01-.048-.006.118.118 0 00-.031-.005c-.012 0-.023-.003-.034-.006a.138.138 0 00-.034-.005.205.205 0 01-.048-.007c-.011-.002-.021-.005-.031-.005-.012 0-.023-.003-.034-.005a.138.138 0 00-.034-.006.206.206 0 01-.048-.006.112.112 0 00-.031-.005.138.138 0 01-.034-.006.135.135 0 00-.034-.006.217.217 0 01-.04-.005c-.014-.003-.028-.006-.039-.006-.023-.011-.045-.011-.068-.011-.022-.012-.056-.012-.079-.012-.022-.01-.045-.01-.068-.01-.022-.012-.056-.012-.079-.012h-4.789v8.905h4.575c.09 0 .17 0 .248-.01h.023c.04-.006.079-.01.118-.012.04-.003.08-.006.119-.011h.023l.248-.034h.023c.158-.034.316-.068.474-.113h.011zm5.987 8.182h.542v-6.137h-1.502v3.775h-.023l-2.123-3.775H23.99v6.137h1.503v-3.82h.023l2.123 3.82h1.096zm-1.378-7.99l.565-1.594v-.011h3.095l.553 1.593h2.406L32.8 37.114l-2.146-5.74h-2.35l-3.331 8.905h2.382zm6.257 8.024c.034-.008.068-.017.102-.023.915-.226 1.627-.79 1.672-1.944 0-1.04-.78-1.457-1.593-1.717h-.011a2.89 2.89 0 01-.05-.018 1.231 1.231 0 00-.13-.039c-.194-.054-.386-.1-.569-.143-.664-.158-1.205-.287-1.205-.66 0-.395.429-.52.768-.52.486 0 1.005.182.983.735h1.592c-.011-1.062-.734-1.65-1.615-1.876a3.665 3.665 0 00-1.875.045h-.023a.955.955 0 01-.084.029.845.845 0 00-.096.034.015.015 0 01-.012.005l-.079.034a2.23 2.23 0 01-.09.04c-.003.003-.006.006-.011.006-.6.282-1.062.79-1.062 1.57 0 .735.384 1.165.904 1.436a3.538 3.538 0 00.649.265c.006.003.011.006.017.006l.203.068c.158.044.315.083.466.121.706.177 1.296.325 1.296.772 0 .452-.497.621-.982.621-.678 0-1.13-.226-1.164-.95h-1.592c0 .928.44 1.527 1.084 1.854a.69.69 0 00.17.085c.002.003.005.006.01.006l.17.067h.011a.996.996 0 00.17.057h.011c.049.02.105.03.156.04l.025.005c.011.011.022.011.034.011l.09.017.09.017h.012c.028.006.059.009.09.012.031.003.062.005.09.011h.034c.028 0 .06.003.09.006a.997.997 0 00.091.005h.452a.94.94 0 00.09-.005.97.97 0 01.09-.006h.023a4.16 4.16 0 00.395-.056h.012c.034-.006.068-.015.101-.023zm5.897-4.882h1.095v-1.289H36.1v6.137h1.593v-2.362h2.519v-1.232h-2.519v-1.254h1.819zm-2.666-8.691l3.095 5.549v.011h2.383v-8.905h-2.18v5.48h-.023l-3.094-5.48h-2.384v8.893h2.18V34.73h.023zm8.54 13.539h.914l.011-1.39h-3.365v-1.164h2.992v-1.232h-2.992v-1.074h3.286v-1.277H41.34v6.138h4.044zm.824-10.736l.948-.995 2.395 3.74h2.88l-3.705-5.401 3.287-3.504h-2.88l-2.925 3.413v-3.413h-2.316v8.906h2.317v-2.747zm4.713 9.902c.021.252.057.67.166.834l1.593-.011c-.183-.183-.226-.867-.25-1.226a4.938 4.938 0 00-.01-.153c-.056-.588-.237-1.311-.892-1.47v-.01c.643-.25.96-.87.96-1.538 0-1.243-1.062-1.729-2.146-1.729h-3.129v6.126h1.593V46.03h1.208c.746 0 .847.633.892 1.255.005.035.01.087.015.149z" fill="#5673CE"/></svg>