<svg width="22" height="22" fill="none" xmlns="http://www.w3.org/2000/svg"><path d="M7.975 11.917C6.508 10.908 5.5 9.258 5.5 7.333c2.658 0 5.133-1.008 6.875-2.75A10.303 10.303 0 0016.5 7.517c-.092 1.833-1.008 3.391-2.475 4.4h2.658c1.009-1.284 1.65-2.842 1.65-4.584C18.333 3.3 15.033 0 11 0S3.667 3.3 3.667 7.333c0 1.742.641 3.3 1.65 4.584h2.658zM11 1.833c2.75 0 5.042 2.017 5.408 4.675-1.283-.55-2.475-1.466-3.391-2.566-.184-.275-.275-.459-.55-.734-.275.275-.367.459-.642.642-1.65 1.558-3.85 2.567-6.233 2.567C6.05 3.85 8.25 1.833 11 1.833zm5.5 11h-11c-3.025 0-5.5 2.475-5.5 5.5v2.75c0 .55.367.917.917.917h20.166c.55 0 .917-.367.917-.917v-2.75c0-3.025-2.475-5.5-5.5-5.5zm3.667 7.334H1.833v-1.834A3.677 3.677 0 015.5 14.667h11a3.677 3.677 0 013.667 3.666v1.834z" fill="#5673CE"/></svg>