<svg width="238" height="120" fill="none" xmlns="http://www.w3.org/2000/svg"><path d="M116.938 67.85c0 1.404-.257 2.47-.772 3.2-.515.724-1.274 1.087-2.276 1.087-.985 0-1.739-.356-2.263-1.067-.524-.715-.793-1.754-.807-3.117V66.17c0-1.4.26-2.459.78-3.179.519-.72 1.278-1.08 2.276-1.08.984 0 1.736.349 2.256 1.046.519.693.788 1.716.806 3.07v1.825zm-.82-1.784c0-1.139-.187-2-.56-2.584-.37-.583-.93-.875-1.682-.875-.738 0-1.294.285-1.668.855-.374.57-.565 1.41-.574 2.522v1.956c0 1.134.191 2.002.574 2.604.387.602.948.902 1.682.902.729 0 1.28-.294 1.654-.882.378-.587.57-1.449.574-2.583v-1.915zM124.937 72h-6.235v-.629l3.411-3.869c.565-.652.957-1.19 1.176-1.613.219-.424.328-.837.328-1.238 0-.629-.184-1.125-.554-1.49-.369-.369-.877-.554-1.524-.554-.67 0-1.212.215-1.627.643-.41.428-.615.984-.615 1.668h-.814c0-.56.126-1.071.376-1.531a2.75 2.75 0 011.08-1.08c.47-.265 1.003-.397 1.6-.397.912 0 1.622.24 2.133.718.515.478.772 1.13.772 1.955 0 .465-.145.973-.437 1.524-.287.552-.795 1.24-1.525 2.065l-2.775 3.138h5.23V72zm1.462-.492c0-.16.051-.294.151-.403a.556.556 0 01.43-.171.56.56 0 01.588.574c0 .16-.052.291-.157.396-.105.1-.248.15-.431.15a.596.596 0 01-.43-.15.552.552 0 01-.151-.396zm.014-6.31c0-.16.05-.294.15-.403a.558.558 0 01.431-.171.558.558 0 01.588.574c0 .16-.052.292-.157.397a.599.599 0 01-.431.15.599.599 0 01-.431-.15.551.551 0 01-.15-.397zm4.813 1.381h.847c.47 0 .88-.082 1.231-.246.351-.169.617-.397.8-.684.186-.291.28-.626.28-1.005 0-.638-.18-1.137-.54-1.497-.36-.36-.878-.54-1.552-.54-.638 0-1.162.19-1.572.568-.406.373-.609.868-.609 1.483h-.82c0-.515.13-.984.39-1.408a2.602 2.602 0 011.08-.991c.46-.233.97-.349 1.531-.349.902 0 1.613.246 2.133.738.519.493.779 1.167.779 2.024 0 .478-.153.92-.458 1.326-.301.401-.715.702-1.244.902.62.174 1.089.472 1.408.896.319.42.479.92.479 1.504 0 .852-.278 1.538-.834 2.057-.556.52-1.299.78-2.229.78a3.748 3.748 0 01-1.634-.356 2.746 2.746 0 01-1.148-.991c-.269-.428-.403-.925-.403-1.49h.82c0 .633.221 1.15.663 1.552.442.396 1.009.594 1.702.594.707 0 1.256-.18 1.648-.54.396-.364.594-.89.594-1.579 0-.665-.214-1.173-.642-1.524-.424-.351-1.051-.527-1.88-.527h-.82v-.697zm11.949 1.272c0 1.403-.258 2.47-.773 3.199-.515.724-1.273 1.087-2.276 1.087-.984 0-1.739-.356-2.263-1.067-.524-.715-.793-1.754-.806-3.117V66.17c0-1.4.259-2.459.779-3.179.519-.72 1.278-1.08 2.276-1.08.985 0 1.737.349 2.256 1.046.52.693.789 1.716.807 3.07v1.825zm-.821-1.785c0-1.139-.186-2-.56-2.584-.369-.583-.93-.875-1.682-.875-.738 0-1.294.285-1.668.855-.373.57-.565 1.41-.574 2.522v1.956c0 1.134.192 2.002.574 2.604.388.602.948.902 1.682.902.729 0 1.281-.294 1.654-.882.379-.587.57-1.449.574-2.583v-1.915z" fill="#4A4A4A"/><path d="M113.779 37.491V42h-2.636V29.203h4.992c.961 0 1.804.176 2.531.527.732.352 1.295.853 1.688 1.503.392.645.588 1.38.588 2.207 0 1.253-.43 2.244-1.292 2.97-.855.72-2.042 1.081-3.559 1.081h-2.312zm0-2.136h2.356c.697 0 1.227-.164 1.591-.492.369-.328.553-.797.553-1.406 0-.627-.184-1.134-.553-1.52-.37-.387-.879-.586-1.53-.598h-2.417v4.017zM125.275 42h-2.548V28.5h2.548V42zm7.612 0a2.833 2.833 0 01-.255-.852c-.615.685-1.415 1.028-2.4 1.028-.931 0-1.705-.27-2.32-.809-.609-.539-.914-1.219-.914-2.039 0-1.008.372-1.781 1.116-2.32.75-.54 1.831-.812 3.243-.818h1.169v-.544c0-.44-.114-.791-.342-1.055-.223-.264-.578-.396-1.064-.396-.428 0-.765.103-1.011.308-.24.205-.36.486-.36.844h-2.54c0-.551.17-1.06.51-1.53.34-.468.82-.835 1.441-1.098.621-.27 1.319-.404 2.092-.404 1.172 0 2.101.295 2.786.887.691.586 1.037 1.412 1.037 2.479v4.122c.006.902.132 1.585.378 2.048V42h-2.566zm-2.101-1.767c.375 0 .721-.082 1.037-.246.317-.17.551-.395.703-.677v-1.634h-.949c-1.271 0-1.948.44-2.03 1.318l-.009.15c0 .316.111.577.334.782.223.205.527.307.914.307zm9.651-1.828l1.757-5.915h2.725l-3.823 10.987-.211.5c-.569 1.243-1.506 1.864-2.813 1.864a4.01 4.01 0 01-1.125-.167v-1.925l.387.009c.48 0 .838-.073 1.072-.22.24-.146.428-.39.563-.73l.299-.782-3.331-9.536h2.733l1.767 5.915zm13.526.492l1.766-6.407h2.655L155.176 42h-2.426l-3.208-9.51h2.654l1.767 6.407zM162.189 42h-2.548v-9.51h2.548V42zm-2.698-11.97c0-.382.126-.695.378-.941.258-.246.607-.37 1.046-.37.434 0 .779.124 1.037.37.258.246.387.56.387.94 0 .387-.132.703-.396.95-.257.246-.6.369-1.028.369-.428 0-.773-.123-1.037-.37-.258-.246-.387-.562-.387-.949zm4.404 7.145c0-1.483.331-2.663.993-3.542.668-.88 1.579-1.319 2.733-1.319.926 0 1.691.346 2.294 1.038V28.5h2.549V42h-2.294l-.123-1.01c-.633.79-1.447 1.186-2.443 1.186-1.12 0-2.019-.44-2.699-1.319-.674-.884-1.01-2.112-1.01-3.682zm2.54.184c0 .891.155 1.574.465 2.048.311.475.762.712 1.354.712.785 0 1.339-.33 1.661-.993v-3.753c-.316-.662-.864-.993-1.644-.993-1.224 0-1.836.993-1.836 2.98zm12.375 4.817c-1.395 0-2.532-.428-3.411-1.283-.873-.856-1.309-1.995-1.309-3.42v-.245c0-.956.184-1.808.554-2.558.369-.756.89-1.336 1.564-1.74.68-.41 1.453-.615 2.32-.615 1.301 0 2.324.41 3.068 1.23.75.82 1.125 1.983 1.125 3.49v1.036h-6.056c.082.621.328 1.12.738 1.494.416.375.941.563 1.574.563.978 0 1.743-.355 2.294-1.063l1.248 1.397c-.381.539-.897.96-1.547 1.265-.651.3-1.371.449-2.162.449zm-.29-7.805c-.504 0-.915.17-1.231.51-.31.34-.51.826-.598 1.459h3.534v-.202c-.012-.563-.164-.996-.457-1.301-.293-.31-.709-.466-1.248-.466zm5.255 2.786c0-.943.182-1.784.545-2.522a4.001 4.001 0 011.565-1.714c.685-.404 1.479-.606 2.382-.606 1.283 0 2.329.392 3.137 1.177.815.785 1.269 1.852 1.363 3.2l.017.65c0 1.459-.407 2.63-1.222 3.515-.814.88-1.907 1.319-3.278 1.319s-2.467-.44-3.287-1.319c-.814-.879-1.222-2.074-1.222-3.585v-.115zm2.54.185c0 .902.17 1.593.51 2.074.34.475.826.712 1.459.712.615 0 1.096-.234 1.442-.703.345-.475.518-1.23.518-2.268 0-.884-.173-1.57-.518-2.056-.346-.487-.832-.73-1.459-.73-.621 0-1.102.243-1.442.73-.34.48-.51 1.227-.51 2.24z" fill="#2B2A29"/><g filter="url(#filter0_d)" fill="#5673CE"><path d="M40 92c-10.683 0-20.732-4.163-28.276-11.724C4.163 72.732 0 62.683 0 52s4.163-20.732 11.724-28.276C19.268 16.163 29.317 12 40 12s20.732 4.163 28.276 11.724C75.837 31.268 80 41.317 80 52c0 7.886-2.341 15.577-6.78 22.211a1.624 1.624 0 01-1.35.716 1.57 1.57 0 01-.894-.277 1.643 1.643 0 01-.456-2.26c4.082-6.081 6.228-13.138 6.228-20.39 0-20.26-16.488-36.748-36.748-36.748C19.74 15.252 3.252 31.74 3.252 52 3.252 72.26 19.74 88.748 40 88.748c6.715 0 13.3-1.837 19.008-5.3.26-.147.537-.228.846-.228.569 0 1.09.292 1.398.78a1.617 1.617 0 01-.553 2.228A39.94 39.94 0 0140 92z"/><path d="M32.861 68.374c-.975 0-1.967-.26-2.845-.764a5.67 5.67 0 01-2.862-4.96v-21.3c0-2.082 1.073-3.935 2.862-4.96a5.701 5.701 0 012.845-.764c.992 0 1.968.277 2.862.78l18.342 10.65A5.648 5.648 0 0156.91 52c0 2.065-1.057 3.919-2.845 4.943l-18.342 10.65a5.66 5.66 0 01-2.862.781zm0-29.496a2.49 2.49 0 00-1.22.325 2.432 2.432 0 00-1.235 2.147v21.3c0 .911.455 1.691 1.236 2.147a2.49 2.49 0 001.22.325 2.35 2.35 0 001.219-.341l18.341-10.65A2.41 2.41 0 0053.642 52c0-.91-.455-1.691-1.22-2.13L34.081 39.22a2.388 2.388 0 00-1.22-.342z"/></g><defs><filter id="filter0_d" x="-20" y="0" width="120" height="120" filterUnits="userSpaceOnUse" color-interpolation-filters="sRGB"><feFlood flood-opacity="0" result="BackgroundImageFix"/><feColorMatrix in="SourceAlpha" values="0 0 0 0 0 0 0 0 0 0 0 0 0 0 0 0 0 0 127 0"/><feOffset dy="8"/><feGaussianBlur stdDeviation="10"/><feColorMatrix values="0 0 0 0 0.360784 0 0 0 0 0.658824 0 0 0 0 1 0 0 0 0.3 0"/><feBlend in2="BackgroundImageFix" result="effect1_dropShadow"/><feBlend in="SourceGraphic" in2="effect1_dropShadow" result="shape"/></filter></defs></svg>