<svg width="60" height="60" fill="none" xmlns="http://www.w3.org/2000/svg"><path fill-rule="evenodd" clip-rule="evenodd" d="M13 17c0-9.388 7.613-17 17-17 9.388 0 17 7.612 17 17 0 9.387-7.612 17-17 17-9.387-.013-16.987-7.613-17-17zm2 0c0 8.288 6.713 15 15 15 8.288 0 15-6.712 15-15S38.288 2 30 2c-8.275.013-14.987 6.725-15 15zm4 0h-2c.012-7.175 5.825-12.988 13-13v2a11.016 11.016 0 00-11 11zm-.363 16.212l-6.912-7.675A3.737 3.737 0 008 24.388V12c0-2.212-1.788-4-4-4-2.213 0-4 1.788-4 4v21c0 .175.037.337.125.487L10 51.263V59c0 .55.45 1 1 1h14c.55 0 1-.45 1-1V46a14.843 14.843 0 00-7.363-12.788zM24 58H12v-6h12v6zm0-8H11.588L2 32.737V12c0-1.1.9-2 2-2s2 .9 2 2v13.625a3.81 3.81 0 00.062 5.038l8.188 9.012 1.475-1.35-8.188-9.013a1.825 1.825 0 011.4-3.05 1.8 1.8 0 011.3.6l7.013 7.788c.087.087.187.163.3.225a12.809 12.809 0 016.45 11.1V50zM56 8c-2.212 0-4 1.788-4 4v12.387a3.332 3.332 0 00-.987-.112 3.768 3.768 0 00-2.738 1.263l-6.913 7.674A14.817 14.817 0 0034 46v13c0 .55.45 1 1 1h14c.55 0 1-.45 1-1v-7.737l8.763-15.875A9.028 9.028 0 0060 30.825V12c0-2.212-1.788-4-4-4zm-8 50H36v-6h12v6zm10-27.175a7.048 7.048 0 01-.975 3.575L48.413 50H36v-4a12.833 12.833 0 016.5-11.138 1.27 1.27 0 00.25-.2l7.013-7.787a1.815 1.815 0 013.162 1.163c.012.475-.163.925-.475 1.275l-8.188 9.012 1.475 1.35 8.188-9.012a3.796 3.796 0 00.063-5.038V12c0-1.1.9-2 2-2s2 .9 2 2v18.825H58zM20 54h2v2h-2v-2zm20 0h-2v2h2v-2zm1-37a11.016 11.016 0 01-11 11v2c7.175-.012 12.987-5.825 13-13h-2zm-5.125 2.012A4 4 0 0034.637 17a3.992 3.992 0 00-1.65-6.862V8h-2v2h-2V8h-2v2h-2c-.55 0-1 .45-1 1v12c0 .55.45 1 1 1h2v2h2v-2h2v2h2v-2.137c2.15-.55 3.438-2.726 2.888-4.85zM32 22h-6v-4h6c1.1 0 2 .9 2 2s-.9 2-2 2zm0-6h-6v-4h6c1.1 0 2 .9 2 2s-.9 2-2 2zM9 0h2c0 2.212 1.787 4 4 4v2c-2.213 0-4 1.787-4 4H9c0-2.213-1.788-4-4-4V4c2.212 0 4-1.788 4-4zm-.688 5A5.909 5.909 0 0110 6.7 5.91 5.91 0 0111.687 5 5.91 5.91 0 0110 3.3 6.07 6.07 0 018.312 5z" fill="#5673CE"/></svg>